<svg width="27" height="248" viewBox="0 0 27 248" fill="none" xmlns="http://www.w3.org/2000/svg">
<rect x="0.5" y="234.5" width="13" height="13" stroke="#B0B0B1"/>
<rect x="13.5" y="156.5" width="13" height="13" stroke="#B0B0B1"/>
<rect x="0.5" y="156.5" width="13" height="13" stroke="#B0B0B1"/>
<rect x="13.5" y="78.5" width="13" height="13" stroke="#B0B0B1"/>
<rect x="0.5" y="78.5" width="13" height="13" stroke="#B0B0B1"/>
<rect x="13.5" y="195.5" width="13" height="13" stroke="#B0B0B1"/>
<rect x="0.5" y="195.5" width="13" height="13" stroke="#B0B0B1"/>
<rect x="13.5" y="117.5" width="13" height="13" stroke="#B0B0B1"/>
<rect x="0.5" y="117.5" width="13" height="13" stroke="#B0B0B1"/>
<rect x="13.5" y="39.5" width="13" height="13" stroke="#B0B0B1"/>
<rect x="0.5" y="39.5" width="13" height="13" stroke="#B0B0B1"/>
<rect x="13.5" y="221.5" width="13" height="13" stroke="#B0B0B1"/>
<rect x="0.5" y="221.5" width="13" height="13" stroke="#B0B0B1"/>
<rect x="13.5" y="234.5" width="13" height="13" fill="#23262F" stroke="#23262F"/>
<rect x="13.5" y="143.5" width="13" height="13" stroke="#B0B0B1"/>
<rect x="0.5" y="143.5" width="13" height="13" stroke="#B0B0B1"/>
<rect x="13.5" y="65.5" width="13" height="13" stroke="#B0B0B1"/>
<rect x="0.5" y="65.5" width="13" height="13" stroke="#B0B0B1"/>
<rect x="13.5" y="182.5" width="13" height="13" stroke="#B0B0B1"/>
<rect x="0.5" y="182.5" width="13" height="13" stroke="#B0B0B1"/>
<rect x="13.5" y="104.5" width="13" height="13" stroke="#B0B0B1"/>
<rect x="0.5" y="104.5" width="13" height="13" stroke="#B0B0B1"/>
<rect x="13.5" y="26.5" width="13" height="13" stroke="#B0B0B1"/>
<rect x="0.5" y="26.5" width="13" height="13" stroke="#B0B0B1"/>
<rect x="13.5" y="208.5" width="13" height="13" stroke="#B0B0B1"/>
<rect x="0.5" y="208.5" width="13" height="13" stroke="#B0B0B1"/>
<rect x="13.5" y="130.5" width="13" height="13" stroke="#B0B0B1"/>
<rect x="0.5" y="130.5" width="13" height="13" stroke="#B0B0B1"/>
<rect x="13.5" y="52.5" width="13" height="13" stroke="#B0B0B1"/>
<rect x="0.5" y="52.5" width="13" height="13" stroke="#B0B0B1"/>
<rect x="13.5" y="169.5" width="13" height="13" stroke="#B0B0B1"/>
<rect x="0.5" y="169.5" width="13" height="13" stroke="#B0B0B1"/>
<rect x="13.5" y="91.5" width="13" height="13" stroke="#B0B0B1"/>
<rect x="0.5" y="91.5" width="13" height="13" stroke="#B0B0B1"/>
<rect x="13.5" y="13.5" width="13" height="13" stroke="#B0B0B1"/>
<rect x="0.5" y="13.5" width="13" height="13" stroke="#B0B0B1"/>
<rect x="13.5" y="0.5" width="13" height="13" stroke="#B0B0B1"/>
<rect x="0.5" y="0.5" width="13" height="13" stroke="#B0B0B1"/>
</svg>
