<svg width="348" height="231" viewBox="0 0 348 231" fill="none" xmlns="http://www.w3.org/2000/svg">
<line y1="-0.5" x2="246" y2="-0.5" transform="matrix(-1 0 0 1 348 231)" stroke="url(#paint0_linear_568_24166)"/>
<path d="M226 225.5L228.387 230.5L222.613 230.5L225 225.5L226 225.5ZM105.5 2.99999L105 2.99999L105.5 2.99999ZM105.5 73L106 73L105.5 73ZM225.5 77L226 77L225.5 77ZM225 226L225 77L226 77L226 226L225 226ZM223.5 75.5L107.5 75.5L107.5 74.5L223.5 74.5L223.5 75.5ZM105 73L105 2.99999L106 2.99999L106 73L105 73ZM103.5 1.49999L-5.24889e-06 1.49999L-5.20517e-06 0.49999L103.5 0.499995L103.5 1.49999ZM105 2.99999C105 2.17156 104.328 1.49999 103.5 1.49999L103.5 0.499995C104.881 0.499995 106 1.61929 106 2.99999L105 2.99999ZM107.5 75.5C106.119 75.5 105 74.3807 105 73L106 73C106 73.8284 106.672 74.5 107.5 74.5L107.5 75.5ZM225 77C225 76.1716 224.328 75.5 223.5 75.5L223.5 74.5C224.881 74.5 226 75.6193 226 77L225 77Z" fill="url(#paint1_linear_568_24166)"/>
<path d="M106 36.5L100 42" stroke="#9A9A9B" stroke-linecap="round"/>
<path d="M110.5 42L106 36.5" stroke="#9A9A9B" stroke-linecap="round"/>
<circle cx="13" cy="13" r="13" transform="matrix(1.19249e-08 -1 -1 -1.19249e-08 119 52)" fill="#CBCFD8" fill-opacity="0.4"/>
<defs>
<linearGradient id="paint0_linear_568_24166" x1="0" y1="0" x2="246" y2="-0.000124572" gradientUnits="userSpaceOnUse">
<stop stop-opacity="0"/>
<stop offset="0.492243" stop-opacity="0.507757"/>
<stop offset="1" stop-opacity="0"/>
</linearGradient>
<linearGradient id="paint1_linear_568_24166" x1="225" y1="230.5" x2="47.9999" y2="-86.4998" gradientUnits="userSpaceOnUse">
<stop stop-color="#7F7F80"/>
<stop offset="1" stop-opacity="0"/>
</linearGradient>
</defs>
</svg>
