<svg width="185" height="64" viewBox="0 0 185 64" fill="none" xmlns="http://www.w3.org/2000/svg">
<g clip-path="url(#clip0_568_24112)">
<path d="M15.8172 52.3543H48.149V3.04021H15.8172V52.3543ZM21.7774 9.2453L42.1888 9.2453V46.1492H21.7774L21.7774 9.2453Z" fill="#23262F"/>
<path d="M48.1125 60.9316L15.8281 60.9316L15.8281 54.9511L48.1125 54.9511V60.9316Z" fill="#23262F"/>
<g clip-path="url(#clip1_568_24112)">
<path d="M15.8172 52.3543L48.149 52.3543V3.04021L15.8172 3.04021V52.3543ZM21.7774 9.2453L42.1888 9.2453V46.1492L21.7774 46.1492V9.2453Z" fill="url(#paint0_linear_568_24112)"/>
<path d="M48.1125 60.9316L15.8281 60.9316L15.8281 54.9511L48.1125 54.9511V60.9316Z" fill="url(#paint1_linear_568_24112)"/>
</g>
</g>
<path d="M130.429 34.8762C130.429 31.8843 128.31 29.9045 125.556 29.9045C122.802 29.9045 120.684 31.8843 120.684 34.8762C120.684 37.8677 122.802 39.8479 125.556 39.8479C128.31 39.8479 130.429 37.8677 130.429 34.8762ZM114.328 34.8762C114.328 28.5982 119.328 23.752 125.556 23.752C131.785 23.752 136.784 28.5982 136.784 34.8762C136.784 41.1548 131.785 46.0001 125.556 46.0001C119.328 46.0001 114.328 41.1548 114.328 34.8762Z" fill="#23262F"/>
<path d="M93.8011 23.8906H87.4453V44.9583H93.8011V23.8906Z" fill="#23262F"/>
<path d="M84.338 23.8906V44.9585H77.9822V42.9783C76.8381 44.5374 74.7197 45.5483 71.9236 45.5483C67.644 45.5483 64 42.5147 64 36.8261V23.8906H70.3558V35.8993C70.3558 38.5118 72.0081 39.7338 74.0415 39.7338C76.3721 39.7338 77.9822 38.3854 77.9822 35.3939V23.8906H84.338Z" fill="#23262F"/>
<path d="M159.892 23.8906V44.9585H153.537V42.9783C152.393 44.5374 150.275 45.5483 147.478 45.5483C143.199 45.5483 139.555 42.5147 139.555 36.8261V23.8906H145.91V35.8993C145.91 38.5118 147.563 39.7338 149.597 39.7338C151.927 39.7338 153.537 38.3854 153.537 35.3939V23.8906H159.892Z" fill="#23262F"/>
<path d="M176.856 44.9583L172.916 39.3966L168.975 44.9583H161.688L169.272 34.256L161.942 23.8906H169.23L172.916 29.1157L176.602 23.8906H183.89L176.56 34.256L184.144 44.9583H176.856Z" fill="#23262F"/>
<path d="M110.313 39.2866C108.401 39.2886 107.351 38.9067 107.351 37.4245V29.9667H111.715V23.899H107.351V18L100.995 19.8961V23.899H97.6055V29.9667H100.995V37.4245C100.995 43.0608 103.561 45.5217 111 45C111 44 111 40.5 111 39.2866H110.313Z" fill="#23262F"/>
<defs>
<linearGradient id="paint0_linear_568_24112" x1="11.5718" y1="7.28562" x2="52.3947" y2="48.1086" gradientUnits="userSpaceOnUse">
<stop stop-color="#00DC9A"/>
<stop offset="1" stop-color="#00EEE7"/>
</linearGradient>
<linearGradient id="paint1_linear_568_24112" x1="22.4159" y1="48.3878" x2="41.5512" y2="67.5232" gradientUnits="userSpaceOnUse">
<stop stop-color="#00DC9A"/>
<stop offset="1" stop-color="#00EEE7"/>
</linearGradient>
<clipPath id="clip0_568_24112">
<rect width="64" height="64" fill="white"/>
</clipPath>
<clipPath id="clip1_568_24112">
<rect width="64" height="64" fill="white"/>
</clipPath>
</defs>
</svg>
