<svg width="48" height="48" viewBox="0 0 48 48" fill="none" xmlns="http://www.w3.org/2000/svg">
<rect width="48" height="48" rx="24" fill="#23262F"/>
<path d="M19 22H29M19 26H24M19 15V17M29 15V17M18.2 33H29.8C30.9201 33 31.4802 33 31.908 32.782C32.2843 32.5903 32.5903 32.2843 32.782 31.908C33 31.4802 33 30.9201 33 29.8V20.2C33 19.0799 33 18.5198 32.782 18.092C32.5903 17.7157 32.2843 17.4097 31.908 17.218C31.4802 17 30.9201 17 29.8 17H18.2C17.0799 17 16.5198 17 16.092 17.218C15.7157 17.4097 15.4097 17.7157 15.218 18.092C15 18.5198 15 19.0799 15 20.2V29.8C15 30.9201 15 31.4802 15.218 31.908C15.4097 32.2843 15.7157 32.5903 16.092 32.782C16.5198 33 17.0799 33 18.2 33Z" stroke="white" stroke-width="1.5" stroke-linecap="round" stroke-linejoin="round"/>
</svg>
