<svg width="40" height="40" viewBox="0 0 40 40" fill="none" xmlns="http://www.w3.org/2000/svg">
<rect width="40" height="40" fill="white"/>
<path d="M5 14.667C5 11.8667 5 10.4666 5.54497 9.39704C6.02433 8.45623 6.78924 7.69133 7.73005 7.21196C8.79961 6.66699 10.1997 6.66699 13 6.66699H27C29.8003 6.66699 31.2004 6.66699 32.27 7.21196C33.2108 7.69133 33.9757 8.45623 34.455 9.39704C35 10.4666 35 11.8667 35 14.667V28.667C35 31.4673 35 32.8674 34.455 33.9369C33.9757 34.8778 33.2108 35.6427 32.27 36.122C31.2004 36.667 29.8003 36.667 27 36.667H13C10.1997 36.667 8.79961 36.667 7.73005 36.122C6.78924 35.6427 6.02433 34.8778 5.54497 33.9369C5 32.8674 5 31.4673 5 28.667V14.667Z" fill="#45B26B"/>
<path d="M26.6668 3.33301V9.99967M13.3335 3.33301V9.99967" stroke="#45B26B" stroke-width="3" stroke-linecap="round" stroke-linejoin="round"/>
<path d="M35 16H5" stroke="white" stroke-width="2" stroke-linecap="square" stroke-linejoin="round"/>
<path d="M12.5 23H11.5" stroke="white" stroke-width="2" stroke-linecap="square" stroke-linejoin="round"/>
<path d="M20.5 23H19.5" stroke="white" stroke-width="2" stroke-linecap="square" stroke-linejoin="round"/>
<path d="M28.5 23H27.5" stroke="white" stroke-width="2" stroke-linecap="square" stroke-linejoin="round"/>
<path d="M12.5 29H11.5" stroke="white" stroke-width="2" stroke-linecap="square" stroke-linejoin="round"/>
<path d="M20.5 29H19.5" stroke="white" stroke-width="2" stroke-linecap="square" stroke-linejoin="round"/>
<path d="M28.5 29H27.5" stroke="white" stroke-width="2" stroke-linecap="square" stroke-linejoin="round"/>
</svg>
