<svg width="48" height="48" viewBox="0 0 48 48" fill="none" xmlns="http://www.w3.org/2000/svg">
<rect width="48" height="48" rx="24" fill="#23262F"/>
<path d="M32.0998 18H28.4998C27.5547 18 27.0822 18 26.7212 18.1962C26.4037 18.3688 26.1455 18.6441 25.9837 18.9828C25.7998 19.3679 25.7998 19.8719 25.7998 20.88V27.12C25.7998 28.1281 25.7998 28.6321 25.9837 29.0172C26.1455 29.3559 26.4037 29.6312 26.7212 29.8038C27.0822 30 27.5547 30 28.4998 30H30.2998H31.5998C32.7199 30 33.28 30 33.7078 29.782C34.0841 29.5903 34.3901 29.2843 34.5818 28.908C34.7998 28.4802 34.7998 27.9201 34.7998 26.8V24.3V20.88C34.7998 19.8719 34.7998 19.3679 34.6159 18.9828C34.4541 18.6441 34.1959 18.3688 33.8784 18.1962C33.5174 18 33.0449 18 32.0998 18Z" stroke="white" stroke-width="1.5" stroke-linecap="round" stroke-linejoin="round"/>
<path d="M13.7998 20.2558V27.7438C13.7998 28.9535 13.7998 29.5584 13.996 30.0204C14.1686 30.4269 14.4439 30.7573 14.7826 30.9644C15.1677 31.1998 15.6717 31.1998 16.6798 31.1998H18.5998V31.1998C20.28 31.1998 21.12 31.1998 21.7618 30.8728C22.3263 30.5852 22.7852 30.1263 23.0728 29.5618C23.3998 28.92 23.3998 28.08 23.3998 26.3998V24.3598V20.2558C23.3998 19.0461 23.3998 18.4412 23.2036 17.9792C23.031 17.5728 22.7557 17.2423 22.417 17.0352C22.0319 16.7998 21.5279 16.7998 20.5198 16.7998H16.6798C15.6717 16.7998 15.1677 16.7998 14.7826 17.0352C14.4439 17.2423 14.1686 17.5728 13.996 17.9792C13.7998 18.4412 13.7998 19.0461 13.7998 20.2558ZM13.7998 20.2558H17.7271" stroke="white" stroke-width="1.5" stroke-linecap="round" stroke-linejoin="round"/>
<path d="M26.8 15H21.2C19.7299 15 18.9948 15 18.4333 15.2943C17.9393 15.5531 17.5378 15.9662 17.2861 16.4742C17 17.0518 17 17.8079 17 19.32V28.68C17 30.1921 17 30.9482 17.2861 31.5258C17.5378 32.0338 17.9393 32.4469 18.4333 32.7057C18.9948 33 19.7299 33 21.2 33H24H26.2C27.8802 33 28.7202 33 29.362 32.673C29.9265 32.3854 30.3854 31.9265 30.673 31.362C31 30.7202 31 29.8802 31 28.2V24.45V19.32C31 17.8079 31 17.0518 30.7139 16.4742C30.4622 15.9662 30.0606 15.5531 29.5667 15.2943C29.0052 15 28.2701 15 26.8 15Z" fill="#23262F" stroke="white" stroke-width="1.5" stroke-linecap="round" stroke-linejoin="round"/>
<path d="M26 24H20M22 28H20M28 20H20" stroke="white" stroke-width="1.5" stroke-linecap="round" stroke-linejoin="round"/>
</svg>
