<svg width="40" height="40" viewBox="0 0 40 40" fill="none" xmlns="http://www.w3.org/2000/svg">
<path fill-rule="evenodd" clip-rule="evenodd" d="M24.0395 12.1347C24.0377 14.232 22.3363 15.9309 20.239 15.9297C18.1417 15.9284 16.4423 14.2276 16.4429 12.1302C16.4435 10.0329 18.1439 8.33301 20.2412 8.33301C21.249 8.33345 22.2154 8.73423 22.9277 9.44718C23.64 10.1601 24.04 11.1269 24.0395 12.1347Z" fill="#9757D7" stroke="#9757D7" stroke-width="1.5" stroke-linecap="round" stroke-linejoin="round"/>
<path fill-rule="evenodd" clip-rule="evenodd" d="M24.1611 21.5313H16.3278C13.591 21.6172 11.417 23.8606 11.417 26.5988C11.417 29.3369 13.591 31.5803 16.3278 31.6663H24.1611C26.8979 31.5803 29.0719 29.3369 29.0719 26.5988C29.0719 23.8606 26.8979 21.6172 24.1611 21.5313Z" fill="#9757D7" stroke="#9757D7" stroke-width="1.5" stroke-linecap="round" stroke-linejoin="round"/>
<path fill-rule="evenodd" clip-rule="evenodd" d="M33.6464 15.0395C33.6455 16.6436 32.3445 17.9434 30.7403 17.9428C29.1361 17.9422 27.8361 16.6414 27.8364 15.0373C27.8367 13.4331 29.1373 12.1328 30.7414 12.1328C31.5122 12.1328 32.2513 12.4391 32.7962 12.9843C33.341 13.5294 33.6469 14.2687 33.6464 15.0395Z" fill="#9757D7" stroke="#9757D7" stroke-width="1.5" stroke-linecap="round" stroke-linejoin="round"/>
<path fill-rule="evenodd" clip-rule="evenodd" d="M6.38965 15.0398C6.38965 16.6442 7.69026 17.9448 9.29465 17.9448C10.899 17.9448 12.1996 16.6442 12.1996 15.0398C12.1996 13.4354 10.899 12.1348 9.29465 12.1348C7.69026 12.1348 6.38965 13.4354 6.38965 15.0398Z" fill="#9757D7" stroke="#9757D7" stroke-width="1.5" stroke-linecap="round" stroke-linejoin="round"/>
<path d="M31.5613 21.8984C31.1471 21.8984 30.8113 22.2342 30.8113 22.6484C30.8113 23.0627 31.1471 23.3984 31.5613 23.3984V21.8984ZM33.7396 22.6484L33.7552 21.8986C33.75 21.8985 33.7448 21.8984 33.7396 21.8984V22.6484ZM33.7396 30.4001V31.1501C33.7448 31.1501 33.75 31.1501 33.7552 31.1499L33.7396 30.4001ZM31.5613 29.6501C31.1471 29.6501 30.8113 29.9859 30.8113 30.4001C30.8113 30.8143 31.1471 31.1501 31.5613 31.1501V29.6501ZM8.47462 23.3984C8.88884 23.3984 9.22462 23.0627 9.22462 22.6484C9.22462 22.2342 8.88884 21.8984 8.47462 21.8984V23.3984ZM6.29629 22.6484V21.8984C6.29111 21.8984 6.28592 21.8985 6.28074 21.8986L6.29629 22.6484ZM6.29629 30.4001L6.28074 31.1499C6.28592 31.1501 6.29111 31.1501 6.29629 31.1501V30.4001ZM8.47462 31.1501C8.88884 31.1501 9.22462 30.8143 9.22462 30.4001C9.22462 29.9859 8.88884 29.6501 8.47462 29.6501V31.1501ZM31.5613 23.3984H33.7396V21.8984H31.5613V23.3984ZM33.7241 23.3983C35.4253 23.4336 36.7859 24.8227 36.7859 26.5243H38.2859C38.2859 24.0064 36.2725 21.9508 33.7552 21.8986L33.7241 23.3983ZM36.7859 26.5243C36.7859 28.2258 35.4253 29.615 33.7241 29.6503L33.7552 31.1499C36.2725 31.0977 38.2859 29.0421 38.2859 26.5243H36.7859ZM33.7396 29.6501H31.5613V31.1501H33.7396V29.6501ZM8.47462 21.8984H6.29629V23.3984H8.47462V21.8984ZM6.28074 21.8986C3.76343 21.9508 1.75 24.0064 1.75 26.5243H3.25C3.25 24.8227 4.61066 23.4336 6.31184 23.3983L6.28074 21.8986ZM1.75 26.5243C1.75 29.0421 3.76343 31.0977 6.28074 31.1499L6.31184 29.6503C4.61066 29.615 3.25 28.2258 3.25 26.5243H1.75ZM6.29629 31.1501H8.47462V29.6501H6.29629V31.1501Z" fill="#9757D7"/>
</svg>
