<svg width="48" height="48" viewBox="0 0 48 48" fill="none" xmlns="http://www.w3.org/2000/svg">
<rect width="48" height="48" rx="24" fill="#23262F"/>
<path d="M19 32C19 30.3431 21.2386 29 24 29C26.7614 29 29 30.3431 29 32" stroke="white" stroke-width="1.5" stroke-linecap="round" stroke-linejoin="round"/>
<path d="M30 26.25C31.7659 26.7129 33 27.7702 33 29.0004" stroke="white" stroke-width="1.5" stroke-linecap="round" stroke-linejoin="round"/>
<path d="M18 26.25C16.2341 26.7129 15 27.7702 15 29.0004" stroke="white" stroke-width="1.5" stroke-linecap="round" stroke-linejoin="round"/>
<path d="M24 26C25.6569 26 27 24.6569 27 23C27 21.3431 25.6569 20 24 20C22.3431 20 21 21.3431 21 23C21 24.6569 22.3431 26 24 26Z" stroke="white" stroke-width="1.5" stroke-linecap="round" stroke-linejoin="round"/>
<path d="M30 22.2361C30.6137 21.6868 31 20.8885 31 20C31 18.3431 29.6569 17 28 17C27.2316 17 26.5308 17.2889 26 17.7639" stroke="white" stroke-width="1.5" stroke-linecap="round" stroke-linejoin="round"/>
<path d="M18 22.2361C17.3863 21.6868 17 20.8885 17 20C17 18.3431 18.3431 17 20 17C20.7684 17 21.4692 17.2889 22 17.7639" stroke="white" stroke-width="1.5" stroke-linecap="round" stroke-linejoin="round"/>
</svg>
