<svg width="135" height="137" viewBox="0 0 135 137" fill="none" xmlns="http://www.w3.org/2000/svg">
<path fill-rule="evenodd" clip-rule="evenodd" d="M11.6396 46.6753C11.0901 46.9443 10.4356 47.6611 9.80598 48.6116C8.53437 50.5485 7.22896 53.5257 6.64207 54.7632C2.41463 63.7482 -0.213957 72.8052 0.0136883 82.8842C0.685952 112.512 20.9588 135.664 50.7785 136.669C71.3874 137.35 82.4211 129.244 93.9047 112.942C95.2119 111.095 98.4878 106.665 100.339 103.06C101.193 101.392 101.735 99.8859 101.735 98.8457C101.735 98.4152 101.399 98.0926 100.985 98.0926C100.572 98.0926 100.236 98.4152 100.236 98.8457C100.236 99.7244 99.7257 100.962 99.0072 102.361C97.1914 105.912 93.9669 110.252 92.6846 112.063C81.5318 127.899 70.8415 135.826 50.8283 135.162C21.8427 134.176 2.16567 111.651 1.51297 82.8485C1.29066 73.0205 3.86945 64.1789 7.99729 55.4091C8.5664 54.2075 9.82195 51.3382 11.0562 49.4551C11.5008 48.7736 11.9099 48.2172 12.2976 48.0378C12.6693 47.8585 12.8241 47.3924 12.6427 47.0157C12.4613 46.6571 12.0113 46.4959 11.6396 46.6753Z" fill="black"/>
<path fill-rule="evenodd" clip-rule="evenodd" d="M87.9949 93.1261C88.0447 92.9826 88.1016 92.8565 88.1567 92.7309C88.4999 92.0136 88.9268 91.2609 89.005 91.0636C89.1722 90.6691 89.8658 88.8213 90.1432 88.068C90.3638 87.9425 90.5096 87.6918 90.5096 87.4228C90.5096 86.8669 90.1931 86.6514 90.0668 86.5976C89.8659 86.49 89.375 86.3825 89.014 86.9205C88.6921 87.4048 87.8491 89.9332 87.6214 90.4892C87.504 90.7761 86.6166 92.3007 86.3801 93.1436C86.2591 93.5919 86.3 93.933 86.3943 94.1482C86.469 94.3096 86.5988 94.4529 86.7997 94.5426C86.9545 94.6143 87.2551 94.6322 87.3511 94.6322C89.6275 94.6322 91.8933 94.8473 94.1697 94.8473C94.5823 94.8473 94.9185 94.5064 94.9185 94.076C94.9185 93.6635 94.5823 93.3229 94.1697 93.3229C92.1085 93.3229 90.0544 93.1619 87.9949 93.1261Z" fill="black"/>
<path fill-rule="evenodd" clip-rule="evenodd" d="M90.5629 86.7578C90.5629 85.7176 90.2357 84.6051 89.8729 83.4932C89.5545 82.5247 89.2094 81.5567 89.1276 80.6062C88.5567 74.0243 90.6625 68.1419 95.491 63.5687C98.3935 60.8068 103.041 59.3719 107.736 59.2105C112.44 59.0491 117.206 60.1793 120.345 62.6362C125.019 66.2948 127.399 72.0335 127.749 77.8621C128.485 90.1112 118.227 100.872 105.877 99.1681C103.891 98.8991 101.568 98.5041 99.4872 97.6612C97.5184 96.8721 95.7614 95.7067 94.7903 93.8236C94.6 93.447 94.1465 93.3034 93.7801 93.5006C93.412 93.68 93.2697 94.1465 93.46 94.5052C94.3759 96.2987 95.8663 97.5536 97.6181 98.4683C100.113 99.7595 103.149 100.316 105.675 100.674C118.965 102.504 130.038 90.9541 129.245 77.7725C128.869 71.5134 126.282 65.3617 121.265 61.4341C117.882 58.7798 112.755 57.525 107.686 57.7043C102.608 57.8837 97.602 59.4978 94.463 62.4569C89.2859 67.3709 87.0219 73.6834 87.6337 80.7316C87.7244 81.7897 88.0944 82.884 88.4501 83.978C88.7595 84.9285 89.0636 85.8611 89.0636 86.7578C89.0636 87.1703 89.3997 87.5109 89.8123 87.5109C90.2267 87.5109 90.5629 87.1703 90.5629 86.7578Z" fill="black"/>
<path fill-rule="evenodd" clip-rule="evenodd" d="M97.9185 78.1674C97.6411 78.4722 97.4811 78.8852 97.5166 79.3156C97.6127 80.4813 98.5801 80.9475 99.5494 80.786C100.458 80.6426 101.266 79.9073 101.205 78.9029C101.12 77.4861 99.7379 77.0379 98.8166 77.3428C98.3827 77.4863 98.059 77.7907 97.9185 78.1674Z" fill="black"/>
<path fill-rule="evenodd" clip-rule="evenodd" d="M106.507 79.2252C106.504 79.279 106.502 79.3325 106.502 79.3863C106.502 79.5836 106.58 79.7627 106.706 79.9061C106.858 80.1931 107.083 80.4083 107.352 80.5338C107.553 80.6235 107.788 80.6594 108.053 80.6235C108.248 80.7311 108.458 80.7853 108.668 80.7853C109.038 80.7674 109.502 80.6056 109.879 79.9061C110.29 79.1708 110.078 78.2566 109.525 77.6469C108.944 77.0192 108.046 76.7856 107.244 77.3057C106.938 77.5209 106.705 77.8438 106.584 78.2563C106.491 78.5612 106.468 78.9024 106.507 79.2252Z" fill="black"/>
<path fill-rule="evenodd" clip-rule="evenodd" d="M117.977 79.9951C118.083 79.8875 118.165 79.7624 118.226 79.6189C118.402 79.2423 118.391 78.7582 118.197 78.3278C118.076 78.0409 117.888 77.7892 117.656 77.574C117.605 77.5202 117.544 77.467 117.477 77.4311C117.408 77.3773 117.331 77.3409 117.247 77.305C116.691 77.0181 116.01 77.0181 115.433 77.574C114.77 78.2017 114.747 79.2425 115.142 79.9419C115.412 80.4441 115.86 80.7666 116.371 80.8204C116.71 80.8383 117.093 80.7669 117.484 80.4799C117.699 80.3185 117.859 80.1566 117.977 79.9951Z" fill="black"/>
<path fill-rule="evenodd" clip-rule="evenodd" d="M24.3025 13.0654C24.2527 13.0833 24.1869 13.1193 24.1353 13.1193C23.8988 13.1731 23.6018 13.2271 23.2621 13.2629C21.4321 13.5319 18.4975 14.0159 16.1251 17.1902C13.8913 20.2032 12.5361 24.3823 13.5481 28.1126C13.605 28.3278 13.797 28.6864 14.0389 29.0451C14.151 29.2244 14.2951 29.4573 14.4178 29.6545C12.5095 30.892 11.3819 33.5821 10.8502 35.6625C10.0427 38.8369 9.82926 43.2132 10.8412 46.9436C11.5437 49.544 12.8313 51.8033 14.8641 53.2381C16.1695 54.1527 17.5923 54.6553 19.0258 55.1036C20.3436 55.4982 21.6686 55.8564 22.8904 56.4662C23.2603 56.6635 23.7121 56.5024 23.897 56.1257C24.0838 55.7671 23.9344 55.3005 23.5644 55.1211C22.2661 54.4576 20.863 54.0811 19.4615 53.6507C18.1757 53.2561 16.8916 52.8258 15.7196 52.0009C13.966 50.7634 12.8919 48.7902 12.2872 46.5484C11.3446 43.0692 11.5509 38.9986 12.3032 36.0394C12.7691 34.2101 13.6868 31.7709 15.4333 30.7845C15.4262 30.8025 15.3995 30.8027 15.3995 30.8027C15.3995 30.8027 15.8708 30.5695 15.9526 30.4798C16.1376 30.2825 16.1731 30.0852 16.1731 29.9418C16.1731 29.7804 16.0699 29.4396 15.8352 29.0451C15.5613 28.6146 15.0705 28.0044 14.9922 27.7175C14.1012 24.4355 15.355 20.7594 17.3238 18.1052C19.3619 15.3612 21.9016 14.9843 23.4755 14.7691C23.9539 14.6974 24.3577 14.6437 24.6564 14.5541C24.9855 14.4464 25.2273 14.321 25.3909 14.1596C25.599 13.9444 25.8053 13.4424 25.8995 12.7788C26.04 11.7745 26.0276 10.2679 26.2019 9.76575C27.1605 6.98595 29.5027 4.86943 31.9908 3.47056C37.5326 0.332069 45.0289 0.888311 49.5213 5.55121C51.0206 7.11149 52.1854 8.92243 52.9751 10.949C53.0018 11.0207 53.0818 11.2362 53.1441 11.3259C53.2632 11.5052 53.4179 11.613 53.5548 11.6488C53.626 11.6668 54.2627 11.8279 54.5046 11.1823C54.5491 11.0747 54.7215 10.4653 54.7286 10.4474C54.8869 9.8735 55.095 9.33491 55.3813 8.79689C56.1674 7.34421 57.2897 6.23257 58.7694 5.49727C63.6246 3.07615 69.6039 3.9192 74.5605 5.46154C84.351 8.49242 90.1826 19.2708 88.3258 29.2601C87.8759 31.6633 86.6309 33.9412 85.3664 36.0037C84.8774 36.8107 84.3367 37.5634 83.7392 38.2987C83.7178 38.3166 83.3106 38.7653 83.2305 38.8549C82.7912 39.3571 83.2288 39.8953 83.2376 39.8953C83.4013 40.0746 83.7765 40.2537 84.2869 40.3254C84.6871 40.3792 85.2064 40.3973 85.6457 40.469C85.8182 40.5049 85.9765 40.5231 86.0725 40.5769C88.3899 42.1372 90.7624 46.0824 91.2515 48.8084C92.0749 53.3996 91.0949 59.0667 87.5201 62.2052C85.948 63.604 84.1713 64.7699 82.2417 65.5769L81.5036 65.7023C81.1053 65.7203 80.7869 66.043 80.7869 66.4554C80.7869 66.5272 80.9061 67.281 81.6299 67.2092C81.8024 67.1913 82.6614 67.0293 82.7681 66.9935C84.8649 66.1147 86.7981 64.8599 88.5037 63.3534C92.4626 59.8741 93.6381 53.6148 92.7257 48.5394C92.178 45.4906 89.5014 41.0611 86.9048 39.3215C86.6185 39.1242 86.1294 38.9984 85.5923 38.9446L85.194 38.8907C85.7186 38.2271 86.2006 37.5278 86.6434 36.7925C88.0004 34.5687 89.3164 32.1296 89.7984 29.5291C91.7921 18.8045 85.5088 7.27262 75.0015 4.00859C69.6981 2.35864 63.2992 1.55146 58.106 4.13399C56.3418 5.01276 55.0026 6.3399 54.0635 8.07952C53.9248 8.3306 53.8003 8.60003 53.6882 8.86904C52.8843 7.2729 51.8475 5.80215 50.5972 4.51089C45.6389 -0.654173 37.3726 -1.29967 31.2582 2.14371C28.4606 3.73985 25.8658 6.1429 24.7863 9.26346C24.6191 9.74768 24.5711 11.0387 24.4679 12.1147C24.4341 12.4555 24.338 12.904 24.3025 13.0654ZM81.9873 65.846C82.1687 65.9894 82.2861 66.2044 82.2861 66.4554C82.2861 66.2402 82.2185 66.0253 81.9873 65.846Z" fill="black"/>
<path fill-rule="evenodd" clip-rule="evenodd" d="M24.619 42.8006C24.9604 42.8724 27.1889 43.3389 27.4485 43.3569C29.556 43.4824 31.9392 43.2489 34.0111 42.8364C35.9087 42.4418 37.0665 41.3837 38.5408 40.4152C39.1331 40.9174 40.6092 42.1727 40.7213 42.2444C42.7612 43.7329 44.938 44.8631 47.3834 45.4908C48.5946 45.8136 53.4143 45.8315 54.4564 45.8495C54.7819 46.0826 55.0433 46.549 55.3101 47.0691C55.8952 48.181 56.3789 49.5616 56.8075 50.2251C58.1129 52.2517 60.5032 54.9956 63.1656 56.6815C65.0454 57.883 67.064 58.5469 68.9474 58.2241C69.3565 58.1523 69.6303 57.7581 69.561 57.3456C69.4916 56.951 69.1039 56.6637 68.6967 56.7354C67.1494 57.0044 65.5096 56.377 63.9659 55.4085C61.4938 53.8303 59.2779 51.2837 58.065 49.4006C57.6541 48.7729 57.1988 47.4457 56.6368 46.3518C56.1673 45.455 55.5982 44.7199 54.9953 44.4329C54.9704 44.415 54.805 44.3612 54.5098 44.3433C53.5298 44.3253 48.9112 44.3248 47.7534 44.0378C45.4912 43.446 43.4814 42.3884 41.5945 41.0254C41.4451 40.9178 39.5226 39.1599 39.0246 38.8908C38.6084 38.6577 38.2848 38.7837 38.1639 38.8733C36.6433 39.8059 35.5922 40.9711 33.7177 41.3477C31.7649 41.7422 29.5205 41.9576 27.5339 41.85C27.2458 41.8321 25.0618 41.2762 24.5709 41.2762C24.0854 41.2762 23.8773 41.5808 23.808 41.7064C23.623 42.083 23.7742 42.5498 24.1441 42.7292C24.2971 42.8009 24.4642 42.8186 24.619 42.8006Z" fill="black"/>
<path fill-rule="evenodd" clip-rule="evenodd" d="M12.5252 36.9724C12.4007 37.0082 12.2833 37.0798 12.1766 37.1874C12.0912 37.2771 11.988 37.4388 11.9347 37.654C11.8813 37.8872 11.8796 38.3177 11.8352 38.515C11.4812 40.2367 11.6146 41.994 11.9205 43.6977L11.9294 43.7516C11.9774 44.2717 12.0592 44.8099 12.1819 45.33C12.2032 45.4197 12.2264 45.5093 12.2513 45.599C12.2211 45.6887 12.205 45.8139 12.205 45.9395C12.205 46.621 12.5732 48.845 13.3113 50.1183C13.7577 50.8895 14.3676 51.338 15.0061 51.338C15.2729 51.338 15.5076 51.1945 15.6393 50.9793C16.5836 51.8939 17.7433 52.7185 19.134 53.5076C19.5235 53.7228 19.897 54.0997 20.2865 54.4225C20.6386 54.6915 21.0032 54.9422 21.3767 55.0677C21.7679 55.1933 22.1005 55.14 22.3744 55.0145C22.586 55.14 22.8617 55.1758 23.1071 55.0502C23.4824 54.8709 23.6424 54.4222 23.4645 54.0456C23.3632 53.8304 23.2725 53.6151 23.1925 53.364C23.2885 51.7858 23.0431 50.1898 23.1801 48.5757C23.1925 48.4322 23.2085 48.2712 23.221 48.1098C23.2316 47.9663 23.2387 47.8046 23.2476 47.6432C23.3668 47.5894 23.4877 47.4821 23.5819 47.3028C23.5891 47.2848 23.6478 47.1946 23.662 46.9973C23.6762 46.8538 23.7403 45.6706 23.7776 45.2761C23.8665 44.3076 23.9857 43.3393 24.1262 42.3709L24.192 41.9225C24.2649 41.7432 24.3573 41.5638 24.4356 41.3845C24.5796 41.0437 24.6917 40.7388 24.7202 40.4878C24.7717 40.0753 24.6312 39.7701 24.416 39.5728C24.2951 39.4652 24.1333 39.3754 23.911 39.3395C23.9839 38.8912 24.0603 38.461 24.1279 38.0127C24.1386 37.941 24.2311 36.9366 24.24 36.7573C24.2525 36.4345 24.1244 36.2729 24.1066 36.255C23.9679 36.0577 23.7936 35.9861 23.6388 35.9503C23.4859 35.9144 23.3258 35.9325 23.1604 36.0042C23.0075 36.0759 22.8528 36.2013 22.7176 36.3986C22.5629 36.6318 22.4188 36.9903 22.3085 37.4207C22.0275 38.5326 21.9138 40.2899 21.8462 40.7203C21.3287 44.1278 20.5621 49.7771 21.6772 53.5433H21.6754C21.4531 53.4357 21.2397 53.2568 21.0245 53.0774C20.6404 52.7546 20.2562 52.4139 19.8667 52.1807C17.5742 50.8895 15.9594 49.4902 14.992 47.7147C14.823 47.4098 14.6736 47.0873 14.5455 46.7465C14.6238 46.621 14.6789 46.4776 14.6789 46.2624C14.6789 45.7782 14.5491 44.7198 14.4033 43.3747C14.4975 43.2492 14.5526 43.0878 14.5526 42.9264C14.5526 42.9264 14.5526 41.6888 14.5526 41.079C14.5526 40.6486 14.526 39.8958 14.5367 38.9991C14.7981 37.7616 15.2196 36.56 15.7851 35.4122C15.8527 35.2688 15.9221 35.1434 15.9897 35.0178C16.1817 34.7309 16.733 33.9413 17.1101 33.3316C17.3324 33.0805 17.5547 32.8116 17.7237 32.5785C17.9673 32.2557 18.115 31.9328 18.1523 31.6818C18.1968 31.3769 18.138 31.1261 17.9904 30.8929C17.8731 30.7136 17.6863 30.5519 17.3786 30.4264C17.0781 30.3188 16.5765 30.2469 15.7976 30.2828C14.1952 30.3724 13.2027 31.7536 12.7901 33.8878C12.6141 34.8025 12.5376 35.8604 12.5252 36.9724Z" fill="black"/>
<path fill-rule="evenodd" clip-rule="evenodd" d="M11.6839 35.6995C11.6217 35.8968 11.5611 36.0587 11.5523 36.0946C11.4224 36.543 11.2801 36.9913 11.2232 37.4397C11.2214 37.4576 11.2019 37.7981 11.2393 37.9595C11.3051 38.2464 11.4812 38.4076 11.6199 38.4793C11.8155 38.5869 12.0413 38.6413 12.3081 38.5157C12.333 38.4978 12.3597 38.4972 12.3882 38.4793C12.4984 38.7483 12.7688 38.9459 13.0836 38.9459C13.498 38.9459 13.8341 38.6053 13.8341 38.1928C13.8341 37.583 13.8715 36.9912 13.9319 36.3994C13.939 36.3456 14.0261 35.4487 13.9888 35.2694C13.8768 34.7313 13.4695 34.6417 13.2418 34.6417C13.2009 34.6417 13.1156 34.6415 13.0142 34.6774C12.8061 34.516 12.6069 34.498 12.4593 34.498C12.2583 34.516 12.0734 34.6059 11.9205 34.7853C11.8422 34.8749 11.7515 35.0184 11.7106 35.2336C11.6892 35.3592 11.6875 35.5381 11.6839 35.6995Z" fill="black"/>
<path fill-rule="evenodd" clip-rule="evenodd" d="M15.0506 51.3547C15.2213 51.552 15.4098 51.7497 15.4543 51.7855C16.1301 52.485 16.9856 53.0764 17.9264 53.3275C18.0118 53.3454 18.0971 53.3457 18.1807 53.3457C18.5275 53.4533 18.764 53.2914 18.885 53.1838C18.965 53.1121 19.3687 52.7359 18.9988 52.1799C18.6983 51.7137 18.2394 51.3726 17.7218 51.0857C17.1687 50.6373 16.3934 50.0453 15.9897 49.866C15.7976 49.7763 15.625 49.7588 15.4757 49.7588C15.4383 49.723 15.4045 49.669 15.3743 49.6152C15.1609 49.2565 14.7002 49.1492 14.3463 49.3644C13.9906 49.5617 13.8768 50.0278 14.0885 50.3865C14.3215 50.7811 14.6575 51.0857 15.0506 51.3547Z" fill="black"/>
<path fill-rule="evenodd" clip-rule="evenodd" d="M20.7487 36.4339C20.6793 36.4697 20.6082 36.5055 20.5406 36.5593C20.4642 36.6131 20.3521 36.7211 20.2721 36.9004C20.217 37.026 20.1529 37.2769 20.1174 37.3845C19.9911 37.797 19.9626 37.9586 19.8701 38.4248C19.63 39.6085 19.5163 40.8101 19.4345 42.0117C19.4238 42.1731 19.4131 42.3344 19.4024 42.4958C19.3953 42.3702 19.3864 42.2626 19.3793 42.1371C19.3366 41.4377 19.3046 40.7199 19.285 40.0025C19.2743 39.6438 19.2761 39.6441 19.2708 39.3033C19.269 39.1957 19.2957 38.9444 19.294 38.8368C19.294 38.6574 19.2548 38.5498 19.2299 38.4781C19.1463 38.2808 19.0147 38.1732 18.9009 38.1194C18.7337 38.0118 18.5488 37.9939 18.3496 38.0297C18.2482 38.0656 18.0081 38.1198 17.8391 38.4606C17.6577 38.8193 17.5902 39.3749 17.6151 39.9668C17.6435 40.6483 17.7734 41.4194 17.7965 41.8499C17.9228 44.1993 18.1326 46.5844 18.6537 48.8799C18.7266 49.3283 18.8013 49.7591 18.8813 50.2075C19.1072 51.445 19.4753 52.682 19.5731 52.9151C19.7563 53.3456 20.0996 53.4174 20.2988 53.4174L20.3273 53.4357C20.6563 53.6867 21.1275 53.6149 21.3783 53.292C21.629 52.9513 21.5632 52.4853 21.2342 52.2342C21.1542 52.1625 21.0973 52.0725 21.0475 51.947C21.0262 51.7318 21.0031 51.5701 21.0013 51.5701C20.9551 51.1038 20.9124 50.6556 20.8768 50.1893C21.1151 50.2252 21.3605 50.1358 21.5544 49.8488C21.59 49.795 21.6327 49.7231 21.6611 49.6155C21.6825 49.5259 21.6949 49.293 21.7073 49.1854C21.734 48.9164 21.782 48.3425 21.8034 48.1093C21.8816 47.2126 21.967 46.3337 22.0594 45.4549C22.0915 45.15 21.9385 44.8628 21.6913 44.7193C21.7251 43.5357 21.7678 42.3519 21.8158 41.1682C21.8531 40.2177 21.8958 39.2678 21.9741 38.3352C22.0097 37.9048 22.0025 37.9401 22.0488 37.5814L22.0577 37.5099L22.0754 37.402L22.0897 37.3124L22.0968 37.2591L22.127 37.0798C22.1306 37.0618 22.1324 37.0256 22.1324 37.0076C22.1377 36.918 22.1235 36.8281 22.0951 36.7743C21.9101 36.1825 21.0991 35.5013 20.7487 36.4339Z" fill="black"/>
<path fill-rule="evenodd" clip-rule="evenodd" d="M34.2544 20.4549C32.1416 21.226 30.1017 22.1767 28.373 23.468C26.2193 25.082 26.1766 26.5885 26.4238 27.8618C26.4843 28.1667 26.6657 28.6689 26.8098 29.0276C26.7564 29.0814 26.7048 29.1171 26.6621 29.153C26.3331 29.4399 25.997 29.6911 25.7196 29.9243C24.3217 31.1259 22.9949 32.4534 21.5366 33.5833C21.3961 33.6909 21.1596 33.8519 20.9942 33.9595C19.8044 33.6905 18.5452 34.2824 18.0224 35.4482C17.4248 36.7932 18.0099 38.3538 19.3277 38.9636C21.3107 39.8603 23.187 38.9633 24.7307 37.7796C26.262 36.596 27.6617 35.2153 29.1289 33.942C30.0768 33.1349 31.4071 32.0587 31.9051 30.8392C32.2554 29.9784 32.2821 29.1888 32.1381 28.4356C32.0865 28.1666 31.9585 27.7902 31.8358 27.4674C32.4529 27.037 33.1127 26.6602 33.801 26.3374C34.258 27.0548 34.9996 27.5753 36.1912 27.4856C36.4206 27.4677 36.7319 27.4133 37.093 27.2699C37.3206 27.1623 37.9128 26.7321 38.1725 26.5707C38.4552 26.3734 38.738 26.1763 39.019 25.997C39.6823 25.6562 40.4347 25.2975 40.6392 25.1899C43.6075 23.7731 47.4294 22.3922 49.4853 19.6303C50.4119 18.3928 50.3799 17.3344 50.1683 16.5633C49.9211 15.6666 49.2915 14.8597 48.203 14.3754C47.1164 13.9092 45.1352 13.8733 44.3758 13.9271C41.2865 14.1423 37.7972 15.308 35.1704 16.9759C34.0037 17.7291 33.616 19.2533 34.2544 20.4549Z" fill="black"/>
<path fill-rule="evenodd" clip-rule="evenodd" d="M21.1028 49.2373C20.9729 48.789 20.3486 46.6374 20.3006 46.4043C19.4861 42.674 20.0197 38.9072 21.7875 35.5176C22.4615 34.2264 21.9707 32.6305 20.6902 31.949C19.4097 31.2675 17.8214 31.7695 17.1474 33.0608C14.7945 37.5444 14.0938 42.5661 15.1769 47.5518C15.2481 47.8746 15.8438 50.2959 16.2885 51.3719C16.7384 52.448 17.4569 52.9678 17.7948 53.1471C19.0895 53.7928 20.6671 53.2731 21.3127 51.9639C21.7626 51.0492 21.647 50.0085 21.1028 49.2373Z" fill="black"/>
<path fill-rule="evenodd" clip-rule="evenodd" d="M21.2291 48.5927C21.1668 48.1623 20.9979 47.0141 20.9801 46.8168C20.8485 45.2924 20.804 43.7505 20.8289 42.2261C20.909 37.4735 21.8587 32.5773 25.1311 28.9905C26.1128 27.9144 26.0452 26.2464 24.9799 25.26C23.9163 24.2736 22.2553 24.3276 21.2736 25.4036C17.119 29.941 15.6838 36.1105 15.5842 42.1364C15.5557 43.8581 15.6073 45.5614 15.7532 47.2652C15.7905 47.7135 16.1889 50.1889 16.3081 50.4758C16.7349 51.4981 17.4676 51.8025 17.8108 51.9281C18.4137 52.1612 18.9971 52.1614 19.5591 51.982C20.0215 51.8206 20.9392 51.4622 21.2878 50.1171C21.4212 49.5971 21.3927 49.059 21.2291 48.5927ZM17.8553 46.9604C17.2915 47.1398 16.525 47.5521 16.2102 48.7896C16.4361 47.9108 17.071 47.2474 17.8553 46.9604Z" fill="black"/>
<path fill-rule="evenodd" clip-rule="evenodd" d="M15.7386 31.4113C15.9929 33.0971 15.84 35.2673 16.3789 36.8455C16.8537 38.2265 18.3477 38.9434 19.7171 38.4771C21.0847 37.9929 21.8103 36.487 21.3372 35.1061C20.882 33.7789 21.1328 31.9317 20.9123 30.5328C20.8376 30.0486 20.6917 29.6182 20.5032 29.1878C20.3911 28.9546 20.1653 28.4883 20.1137 28.3807C19.7509 25.314 20.6152 21.7088 23.178 19.7898C24.1757 19.0545 25.2677 18.875 26.3597 18.6598C27.473 18.4267 28.5988 18.1939 29.721 17.7456C31.0709 17.2076 31.7378 15.6829 31.2113 14.3199C30.6849 12.9569 29.1625 12.2936 27.8144 12.8137C26.7207 13.2441 25.6145 13.3871 24.5403 13.6382C22.9895 13.979 21.492 14.4814 20.0639 15.5395C15.9805 18.5704 14.3087 24.2375 14.9152 29.1156C14.9774 29.5998 15.1162 30.0663 15.3065 30.5146C15.4274 30.7836 15.687 31.3217 15.7386 31.4113Z" fill="black"/>
<path fill-rule="evenodd" clip-rule="evenodd" d="M30.8309 15.0031C30.8309 8.67236 37.6087 5.96415 43.1308 7.05814C44.2264 7.29128 45.4731 7.50649 46.421 8.13419C47.7726 9.01297 48.372 10.4301 48.8041 11.9186C49.4035 13.981 49.6525 16.2229 50.1505 18.1598C50.5151 19.5587 51.9468 20.4196 53.3482 20.0429C54.7496 19.6843 55.5926 18.2316 55.228 16.8148C54.7176 14.842 54.4544 12.5462 53.839 10.4299C53.0529 7.72184 51.7351 5.30044 49.2701 3.68636C47.7798 2.71791 45.8661 2.21618 44.1446 1.87542C35.5723 0.171673 25.5862 5.17518 25.5862 15.0031C25.5862 16.4737 26.76 17.6575 28.2094 17.6575C29.6553 17.6575 30.8309 16.4737 30.8309 15.0031Z" fill="black"/>
<path fill-rule="evenodd" clip-rule="evenodd" d="M33.8968 9.15582C32.6964 9.69385 31.5386 10.3933 30.4217 11.2183C29.3795 12.0074 28.3409 12.8866 27.5086 13.8909C27.3307 14.1061 26.5659 15.1998 26.4326 15.8454C26.3632 16.1682 26.349 16.4909 26.3811 16.7779L26.1765 17.0469C26.0466 17.2262 25.9186 17.3881 25.7905 17.5674L25.6234 17.711C25.0632 17.6393 24.4674 17.6931 23.8734 17.8904C23.1371 18.1414 22.3705 18.6615 21.8565 19.0561C20.6774 19.9169 19.1213 21.5669 18.4472 23.2706C17.7732 24.9744 17.8336 26.7319 18.9808 28.2922C19.8451 29.4579 21.4902 29.6911 22.6516 28.8302C22.7618 28.7406 22.865 28.6509 22.9575 28.5612C23.018 28.5792 23.0784 28.5965 23.1406 28.6145C23.491 28.7221 23.9445 28.7942 24.4852 28.6866C24.5243 28.7404 24.5652 28.7764 24.6096 28.8302C24.976 29.2248 25.5451 29.673 26.5535 29.673C26.9786 29.673 27.706 29.6014 28.4102 28.9199C28.5988 28.7226 29.1803 27.8078 29.367 27.5209C30.0002 26.6062 30.7133 25.7272 31.4639 24.9022C34.1156 21.9969 37.1088 19.6654 40.6177 17.9079C43.0009 16.7242 45.5921 15.4867 48.2936 15.9351C48.4679 15.953 48.9338 16.0784 49.2148 16.1502C49.7751 17.0289 50.8262 17.5314 51.9075 17.3341C53.3302 17.0472 54.2675 15.6661 53.9989 14.2313C53.8175 13.2629 53.2537 12.42 52.3538 11.8102L52.2329 11.7388C52.2578 11.667 52.2738 11.595 52.2863 11.5412C52.4819 10.7162 52.3467 9.92727 51.7083 9.17404C51.3543 8.77948 50.7728 8.3492 49.9138 8.2416C49.4016 8.16986 48.4287 8.31291 48.1851 8.34878C48.0161 8.36672 47.8472 8.38507 47.68 8.42094C47.5982 7.90085 47.3937 7.41648 47.0629 6.93226C46.3764 5.94587 45.3769 5.49738 44.2493 5.53325C43.6215 5.53325 42.9368 5.7486 42.3784 6.03555C42.0245 5.73066 41.3505 5.24644 40.1571 5.49752C38.745 5.78447 37.0359 7.05752 35.8408 7.81075C35.1703 8.24118 34.5229 8.6716 33.8968 9.15582Z" fill="black"/>
<path fill-rule="evenodd" clip-rule="evenodd" d="M26.6624 36.6126C26.4881 36.4871 25.8371 36.0386 25.4992 35.8413C24.8074 35.4288 24.128 35.2676 23.5874 35.2676C22.1397 35.2676 20.9641 36.4514 20.9641 37.922C20.9641 39.1594 21.8231 40.2177 22.9756 40.4867C23.3135 40.7199 24.466 41.4546 24.9586 41.616C26.6909 42.172 28.5155 42.2258 30.3225 42.154C33.6038 42.0106 36.4973 40.4504 39.0228 38.1728C42.224 35.2854 44.8188 31.2142 47.0366 28.4344C47.9436 27.2866 47.7605 25.6192 46.6311 24.7046C45.5018 23.7899 43.8496 23.9867 42.9443 25.1165C41.1961 27.3224 39.222 30.3717 36.8584 32.9004C34.9323 34.9808 32.7696 36.7558 30.1002 36.8634C28.9441 36.9172 27.7739 36.9355 26.6624 36.6126Z" fill="black"/>
<path fill-rule="evenodd" clip-rule="evenodd" d="M28.2076 33.7438C27.795 34.1384 27.3806 34.5511 27.1405 34.8381C26.4558 35.681 26.3118 36.506 26.3082 36.9005C26.2993 38.0483 26.815 38.8552 27.7772 39.3574C28.1293 39.5367 28.9653 39.9132 30.3383 39.3931C31.2186 39.0703 31.8161 38.2994 31.9904 37.4385L33.0949 36.3982C33.2834 36.2189 33.4737 36.0217 33.664 35.8245C33.8685 35.6272 34.073 35.4116 34.2793 35.2143C36.4615 33.0442 38.7327 30.9458 41.0909 28.973C41.8325 28.3453 42.5884 27.7539 43.3567 27.1621C43.4207 27.1083 44.4683 26.2654 44.655 26.086C45.7541 25.0459 45.4944 23.88 45.4659 23.7006C45.3094 22.7501 44.7866 22.0688 43.8742 21.6922C43.5488 21.5487 42.8907 21.351 41.9873 21.62C41.8681 21.6559 41.6903 21.7282 41.4768 21.8358C41.203 21.4053 40.7423 20.9206 39.8531 20.7233C39.364 20.5977 38.7006 20.58 37.9625 20.8669C37.1978 21.1359 36.0329 22.0145 35.6754 22.2477C33.5519 23.6466 31.5244 25.2074 29.6748 26.947C28.9279 27.6644 28.1756 28.3991 27.5781 29.242C27.5834 29.242 27.619 29.1888 27.619 29.1888C27.619 29.1888 26.8738 30.462 26.8115 31.018C26.6764 32.2195 27.1885 33.0979 28.0475 33.6359C28.0955 33.6718 28.1489 33.7079 28.2076 33.7438Z" fill="black"/>
<path fill-rule="evenodd" clip-rule="evenodd" d="M52.6761 17.154C52.4965 17.136 52.308 17.1358 52.1088 17.1358C51.5254 17.1716 50.4388 17.6383 50.1916 17.7459C48.7101 18.3916 47.2856 19.1807 45.8948 19.9877C45.3559 20.3105 44.8188 20.6334 44.2942 20.9741C44.079 21.1176 43.5686 21.4401 43.4192 21.5836C43.1595 21.8167 43.0012 22.0499 42.9034 22.2113C42.5193 22.8569 42.4908 23.4492 42.5459 23.8975C42.6064 24.4176 42.7932 24.8835 43.1222 25.2601C42.7665 25.7623 42.53 26.2826 42.4215 26.8027C42.1173 28.2375 43.0207 29.6363 44.4364 29.9412C45.7151 30.2282 46.9779 29.5105 47.4332 28.3089C47.6217 28.1475 48.1819 27.6274 48.3989 27.4122C49.0498 26.7666 49.7168 26.1393 50.3873 25.5116C51.1556 25.2785 51.7513 24.7046 52.0376 23.9872L52.187 23.8436L52.6868 23.377C53.4444 22.9466 54.218 22.5344 54.9988 22.1398C54.9774 22.1578 54.9027 22.1938 54.9027 22.1938C54.9027 22.1938 56.7737 21.3328 57.133 20.9741C57.6363 20.472 57.8373 19.9341 57.9173 19.5036C58.1005 18.5352 57.7892 17.8896 57.4744 17.4412C57.1205 16.939 56.6297 16.5623 55.9681 16.4009C55.7244 16.3291 55.4434 16.2933 55.1233 16.3112C54.8334 16.3291 53.7467 16.7414 53.7467 16.7414C53.7467 16.7414 53.8659 16.6878 53.9139 16.6699C53.7627 16.7237 53.247 16.9208 53.1261 16.9746L52.6761 17.154Z" fill="black"/>
<path fill-rule="evenodd" clip-rule="evenodd" d="M41.9428 33.4567C41.9784 32.3806 41.3647 31.3588 40.3297 30.9284C38.9923 30.3724 37.4557 30.9998 36.899 32.3449C36.6144 33.0443 36.5433 34.1745 37.0431 35.4119C37.5748 36.739 38.7896 38.425 39.3018 38.963C42.4674 42.2988 47.4703 44.8449 52.2366 44.3965C53.9315 44.2351 55.6156 44.1459 57.2447 43.572C64.0883 41.1688 69.1143 34.2099 72.9024 28.4351C74.2203 26.4264 76.6853 22.3559 77.1814 18.9664C77.4873 16.886 77.1103 15.0026 75.9686 13.5679C75.0598 12.4201 73.4075 12.2406 72.28 13.1553C71.1524 14.0699 70.9728 15.7379 71.8798 16.8857C72.0594 17.1009 72.0488 17.4057 72.0364 17.7285C72.0204 18.1768 71.919 18.6611 71.7749 19.1632C71.0795 21.5843 69.4309 24.1494 68.5274 25.5124C65.3191 30.4084 61.305 36.5416 55.5107 38.5861C54.2925 39.0166 53.0209 39.0166 51.7528 39.1242C48.5356 39.429 45.2259 37.5458 43.0881 35.304C42.8516 35.0529 42.1633 33.8512 41.9428 33.4567Z" fill="black"/>
<path fill-rule="evenodd" clip-rule="evenodd" d="M57.4601 16.491C57.5277 16.1861 57.6415 15.6838 57.6682 15.5403C57.9776 13.9262 58.7744 12.1325 60.0175 11.0386C62.6835 8.72504 66.7704 8.3309 70.0286 9.49663C71.2362 9.92705 72.1432 10.8598 73.2779 11.4337C74.2382 11.9 75.4173 12.5092 76.3208 13.2803C76.6801 13.5852 77.0891 13.8542 77.1033 14.2667C77.1122 14.4819 76.9469 14.6973 76.7423 14.9484C74.4214 17.9254 71.0014 19.9699 68.8388 23.0188C67.9976 24.2024 68.2697 25.8706 69.447 26.7135C70.6244 27.5564 72.2641 27.287 73.1053 26.1033C75.2217 23.1083 78.5901 21.1358 80.8612 18.2305C82.0813 16.6702 82.4299 15.1997 82.3374 13.8905C82.2431 12.5634 81.6669 11.3255 80.719 10.2315C79.4118 8.74297 77.2901 7.524 75.5987 6.6811C74.2791 6.03546 73.1836 5.01293 71.7786 4.51077C66.8273 2.75322 60.6453 3.52467 56.5957 7.03978C54.5025 8.85114 53.037 11.8277 52.5177 14.5357C52.427 15.002 52.082 16.5085 52.1994 17.3155C52.3399 18.2481 52.8094 18.9118 53.3642 19.3422C54.522 20.221 56.1689 19.9879 57.0368 18.8042C57.5525 18.1227 57.6807 17.2622 57.4601 16.491Z" fill="black"/>
<path fill-rule="evenodd" clip-rule="evenodd" d="M69.3864 9.69413L71.2307 9.67662C72.874 9.65868 75.4262 10.1066 76.6907 11.2185C77.4252 11.8642 77.9178 12.9046 78.5474 13.6579C83.2675 19.343 85.4781 28.7767 79.6856 34.4798C78.6505 35.5021 77.0375 35.8246 75.6947 36.255C71.9457 37.4566 68.0491 38.0842 64.2929 39.2499C62.9075 39.6624 62.1285 41.1513 62.55 42.5502C62.9733 43.9311 64.4405 44.7197 65.8259 44.3072C69.5963 43.1415 73.5072 42.4964 77.2722 41.2948C79.3637 40.6312 81.7415 39.8596 83.3546 38.2635C91.1336 30.5877 88.9088 17.8906 82.5685 10.2686C81.7717 9.30014 81.0728 8.06226 80.1426 7.23728C78.0423 5.39006 73.886 4.35015 71.1543 4.38602C70.5016 4.40395 69.2442 4.31386 68.2981 4.4932C67.3679 4.67255 66.6174 5.08559 66.1176 5.60569C65.0985 6.62794 65.1056 8.3132 66.1336 9.33545C67.0193 10.2322 68.3745 10.3398 69.3864 9.69413Z" fill="black"/>
<path fill-rule="evenodd" clip-rule="evenodd" d="M68.4385 40.9526L70.5815 39.0519C71.1791 39.2672 72.047 39.3746 72.9967 38.6393C73.1337 38.5317 73.8023 37.6704 74.0424 37.3118C74.1154 37.1862 74.5671 36.5229 74.6276 36.4333C74.9246 35.9849 75.2269 35.5543 75.5346 35.1239L75.7712 34.8549L75.8245 34.801C75.812 34.9086 75.8067 34.9985 75.8049 35.0882C75.796 35.8414 76.0699 36.4156 76.3776 36.8102C76.8986 37.4737 77.6652 37.9938 78.9048 37.7965C79.5681 37.7069 80.3347 37.3297 80.9856 36.5944C81.5245 36.0026 82.0385 35.0347 82.2679 34.6581C83.4755 32.5956 84.4767 30.3353 85.2468 28.0756C85.4923 27.3583 85.9564 25.7801 85.7448 24.7578C85.5118 23.6459 84.9036 22.7671 83.6978 22.3367C83.7992 22.0856 83.8952 21.8347 83.9841 21.5836C84.1175 21.189 84.3879 20.2564 84.3416 19.6108C84.2954 19.019 84.0926 18.4989 83.7974 18.0864C83.1767 17.2256 82.3283 16.8309 81.2612 16.9564C80.8148 16.9923 80.1302 17.2081 79.4615 17.7999C78.7537 18.4276 77.7043 19.8982 77.6047 20.0417C75.86 22.5525 74.688 25.3499 73.1977 28.0042C71.6646 30.7302 69.5678 32.9537 67.238 34.9803C66.845 35.3211 65.0042 36.7922 64.2751 37.7069C63.601 38.5319 63.4285 39.3568 63.4285 39.859C63.4285 41.3117 64.604 42.4952 66.0517 42.4952C67.1117 42.4952 68.0241 41.8672 68.4385 40.9526Z" fill="black"/>
<path fill-rule="evenodd" clip-rule="evenodd" d="M55.8416 14.3935C54.6731 15.0392 53.4869 15.7022 52.4233 16.5092C52.2224 16.6706 51.4185 17.3342 51.1215 17.8543C50.7391 18.5178 50.6662 19.182 50.764 19.7738C50.8565 20.3298 51.0877 20.8318 51.4896 21.2443C51.1162 21.2263 50.732 21.2797 50.3621 21.4411C49.3679 21.8536 47.7708 22.4096 46.999 23.2345C46.5295 23.7367 46.3143 24.311 46.2823 24.9208C46.2663 25.2077 46.284 25.6023 46.4352 25.9968C45.9533 26.1762 45.4784 26.3736 45.0124 26.5888C44.7546 26.7143 43.8297 27.1805 43.4242 27.6109C42.9085 28.1669 42.6827 28.7946 42.6435 29.4043C42.5991 30.0679 42.7448 30.6599 43.1023 31.162C42.6381 31.3414 42.1847 31.5563 41.7436 31.7715C41.6707 31.8074 41.1692 32.0763 40.7957 32.3453C40.36 32.6681 40.0363 33.0625 39.8531 33.3674C39.1649 34.551 39.3231 35.645 40.1252 36.5955C40.5093 37.0439 41.05 37.403 41.7579 37.5644C42.391 37.7258 43.4492 37.564 43.8938 37.4923C43.9204 37.6716 43.9631 37.8509 44.0236 38.0303C44.2352 38.64 44.6514 39.2139 45.3308 39.6444C46.0297 40.0748 47.4454 40.2904 47.9522 40.3442C49.8819 40.5236 51.8703 40.2007 53.7519 39.8062C58.0665 38.9095 62.1427 37.403 65.2693 34.5156C66.3861 33.9955 67.4924 33.3857 68.1806 32.6325C68.997 31.7537 68.9454 30.9107 68.8742 30.4265C68.8475 30.2471 68.8067 30.0678 68.7462 29.8884C69.1304 29.1352 69.4594 28.3461 69.751 27.557C69.8489 27.288 70.1689 26.5706 70.2454 26.1222C70.3432 25.5304 70.2739 25.0281 70.1458 24.6336C70.1423 24.6336 70.0783 24.4904 69.9503 24.2931C70.1477 23.7192 70.1014 23.1453 69.9111 22.5893L69.904 22.5711C70.6296 22.3021 71.3481 21.9974 72.0275 21.6387C72.1093 21.5849 72.6446 21.3159 73.0323 21.011C73.5142 20.6344 73.8469 20.1501 74.0229 19.7556C74.48 18.7154 74.3768 17.7108 73.5979 16.7782C73.3133 16.4375 72.9256 16.1511 72.4454 15.9179H72.4437L72.3689 15.8283C73.2706 16.2228 74.1545 16.689 75.0278 17.2091C76.0806 17.8368 77.1264 18.554 78.0352 19.3969C78.3037 20.2039 78.9582 20.8675 79.8368 21.1006C81.2346 21.4952 82.677 20.6522 83.054 19.2533C83.2514 18.5 83.1785 17.729 82.805 16.9758C82.5134 16.4019 81.9105 15.7924 81.5637 15.4696C80.3916 14.4115 79.0507 13.4604 77.6902 12.6533C76.3705 11.8642 75.0242 11.1829 73.6441 10.6449C73.5214 10.4117 73.3578 10.1969 73.1479 9.99964C72.9328 9.78443 72.6233 9.55086 72.2214 9.38946C71.8586 9.24598 71.2628 9.13838 71.1845 9.12044C70.2561 8.9411 69.3117 8.86978 68.3709 8.83391C65.8579 8.74424 63.3538 9.10279 60.9351 9.76635C60.1863 9.98156 59.4395 10.2144 58.705 10.4655C58.6125 10.5014 57.9828 10.7344 57.8708 10.7703C57.8957 10.7523 57.9651 10.7345 57.9651 10.7345C57.9651 10.7345 57.0811 11.0573 56.8891 11.1829C56.5476 11.416 56.3218 11.6675 56.1652 11.8827C55.6104 12.6539 55.5553 13.4609 55.7829 14.2142L55.8416 14.3935ZM53.293 22.1228L53.318 22.141L53.5651 22.087L53.5615 22.0688H53.5313L53.2255 22.0513L53.293 22.1228Z" fill="black"/>
<path fill-rule="evenodd" clip-rule="evenodd" d="M80.4307 43.3738C80.6138 43.4276 81.0638 43.5535 81.3075 43.6253C83.1873 44.1992 84.4785 45.185 85.839 46.6377C88.4801 49.4713 87.4094 53.9908 85.7715 57.0935C85.2273 58.1336 84.466 59.4791 83.3847 60.0351C82.09 60.6807 81.5653 62.2767 82.2127 63.568C82.8601 64.8772 84.4358 65.4148 85.7306 64.7512C87.726 63.7469 89.3995 61.4875 90.4044 59.5685C93.0027 54.6366 93.8457 47.4986 89.6574 43.0151C87.6228 40.845 85.6487 39.4281 82.8387 38.5673C81.4053 38.1368 79.8616 37.7783 78.3321 38.5315C77.032 39.1772 76.4949 40.7552 77.1316 42.0644C77.7345 43.3198 79.1768 43.858 80.4307 43.3738Z" fill="black"/>
<path fill-rule="evenodd" clip-rule="evenodd" d="M83.6269 53.8655L83.9363 54.1527L83.9932 54.2066C84.1889 54.6371 84.5001 55.0133 84.918 55.3002C86.1202 56.1073 87.7511 55.7849 88.5567 54.5653C89.7732 52.736 89.2558 50.8707 88.3132 49.1311C87.3972 47.4453 86.2981 45.8493 85.1189 44.3428C84.3453 43.3564 83.545 42.4954 83.1057 42.1368C82.6611 41.7781 82.2645 41.6165 82.0156 41.5448C80.8702 41.1861 80.0503 41.5808 79.4936 42.0471C79.3425 42.1906 79.1984 42.334 79.0704 42.4954C78.6364 42.1547 78.0976 41.76 77.6067 41.5448C76.9771 41.2578 76.36 41.1685 75.798 41.2043L75.5686 40.9171C75.4103 40.2894 75.0173 39.6978 74.4233 39.3212C73.4202 38.6935 72.7301 38.7831 72.4669 38.8189C71.8107 38.8907 71.334 39.1595 70.9712 39.4824C70.5533 39.8769 70.2473 40.3794 70.1389 41.025C70.0837 41.3657 70.0678 41.8498 70.2652 42.4058C70.3844 42.7286 71.0334 43.6608 71.2575 43.9477C71.9636 44.8623 72.6821 45.7592 73.3633 46.6918C75.2627 49.2564 77.2012 51.8029 79.1451 54.3496C79.3905 54.6724 79.5595 54.7982 79.588 54.8161C80.3616 55.4438 81.0481 55.4081 81.3522 55.4081C82.044 55.3722 82.5829 55.1028 83.0097 54.7082C83.0559 54.6724 83.385 54.3497 83.6269 53.8655Z" fill="black"/>
<path fill-rule="evenodd" clip-rule="evenodd" d="M81.7556 57.7387C81.7236 58.8147 82.3372 59.8365 83.3705 60.267C84.7079 60.8229 86.2445 60.1955 86.7994 58.8504C87.1142 58.0793 87.1498 57.2543 86.9203 56.4293C86.6731 55.5326 85.9848 54.5821 85.5278 54.0082C84.0516 52.1968 81.4266 49.4888 79.1982 48.7176C78.1649 48.3589 77.1191 47.9467 76.052 47.6598C76.4344 46.8527 76.55 46.2065 76.4984 45.6506C76.4273 44.8435 76.1072 43.8218 74.5136 42.7278C73.4981 42.0463 72.1732 42.1538 71.2981 42.9429C69.9892 42.1538 68.4953 41.4545 67.1116 41.3828C66.8537 41.3648 66.5941 41.3826 66.3398 41.4185C65.3509 41.562 64.7889 41.9924 64.4244 42.4049L64.3906 42.4588C63.4373 41.9208 62.5961 41.1673 61.7549 40.4678C61.1573 39.9836 60.5847 39.4634 59.9836 38.9792C59.9444 38.9433 58.872 38.2443 58.4629 38.1546C57.8849 38.0111 57.4012 38.0827 57.0384 38.1903C56.0638 38.4952 55.3701 39.1587 55.2029 40.3782C55.1194 40.9879 55.2563 41.9921 55.7738 43.104C56.4052 44.467 57.6022 46.225 58.0503 46.8527C60.6167 50.3499 65.3243 52.6991 69.6798 52.8067C70.9354 52.8426 72.2088 52.3765 73.4484 52.502C74.848 52.6455 76.1765 53.2547 77.4997 53.721C78.9509 54.2231 80.5 56.1602 81.4604 57.3618C81.528 57.4335 81.6543 57.6131 81.7556 57.7387Z" fill="black"/>
<path fill-rule="evenodd" clip-rule="evenodd" d="M67.5671 50.6378C67.3181 50.4405 66.7348 49.9923 66.3702 49.7951C63.7274 48.3782 63.1369 46.9076 61.4011 44.5045C60.1224 42.729 58.7103 41.3122 57.6095 39.3932C56.8839 38.1378 55.2779 37.7077 54.024 38.425C52.772 39.1603 52.3434 40.7922 53.069 42.0476C54.2659 44.128 55.7705 45.6883 57.1613 47.6072C59.4573 50.7995 60.407 52.5931 63.9053 54.4762C64.2023 54.6196 64.4352 54.8884 64.7109 55.0857C65.2693 55.4623 65.8829 55.7494 66.5961 55.857C68.2074 56.108 69.4666 55.4621 71.0067 55.1214C71.4407 55.0138 71.8924 55.0859 72.3423 55.1039C72.9701 55.1218 73.598 55.1036 74.2116 54.996C75.0119 54.8346 75.7997 54.5832 76.5911 54.3501C77.2936 54.1528 77.9926 53.902 78.7467 54.0096C79.113 54.0634 79.3442 54.3146 79.6039 54.5119C80.0983 54.8885 80.5891 55.2829 81.1493 55.6237C82.3961 56.359 84.0056 55.9466 84.7401 54.6912C85.4728 53.4179 85.0567 51.804 83.8082 51.0687C83.143 50.6741 82.6131 50.1361 81.9924 49.7236C81.2525 49.2573 80.4379 48.8982 79.4455 48.7547C77.2794 48.4678 75.3017 49.4005 73.2618 49.7951C72.7816 49.8668 72.2854 49.7951 71.7964 49.7951C71.1383 49.7771 70.4874 49.8127 69.8507 49.9562C69.2816 50.0817 68.757 50.2796 68.2394 50.441C68.0189 50.5127 67.8054 50.6199 67.5671 50.6378Z" fill="black"/>
<path fill-rule="evenodd" clip-rule="evenodd" d="M76.8133 53.9384C76.6515 53.8666 76.4968 53.8127 76.3563 53.7948C75.9579 53.723 75.6306 53.8126 75.4065 54.0098C75.2358 54.1712 75.0971 54.3862 75.0579 54.709C75.0384 54.8883 75.0722 55.0859 75.2394 55.2652C75.298 55.337 75.3976 55.4265 75.5363 55.4803C75.563 55.4982 75.5915 55.5163 75.6217 55.5342C75.6679 55.5701 75.7249 55.6063 75.7924 55.6421C75.8849 55.6959 76.0734 55.7492 76.1588 55.785C76.39 55.9106 76.6265 56.0186 76.8631 56.1262C77.0089 56.18 78.2663 56.8077 78.8301 56.9333L78.855 56.9508C79.024 57.0763 79.2018 57.2203 79.3726 57.3459C79.5664 57.5611 79.762 57.7941 79.9647 58.0093C79.9825 58.0272 80.0643 58.1165 80.1675 58.2062C80.1888 58.2958 80.2155 58.3856 80.2279 58.4395C80.2866 58.6726 80.3454 58.9062 80.4112 59.1393C80.4841 59.4083 80.6423 60.2507 80.854 60.8066C80.8824 61.1474 80.9074 61.4345 80.9412 61.6676C80.9643 61.8111 80.9661 62.2234 81.0248 62.5104C81.0817 62.7794 81.2044 62.995 81.3271 63.1206H81.3342C81.3111 63.5331 81.2649 63.9275 81.2435 64.2323C81.2169 64.609 81.1261 65.0037 81.1439 65.183C81.1759 65.4879 81.3378 65.6674 81.4996 65.775C81.6472 65.8646 82.0545 66.0259 82.5934 65.5417C82.8726 65.2906 82.8975 64.8598 82.6485 64.5728C82.6254 64.5549 82.5987 64.5193 82.572 64.5014C82.5791 64.4476 82.5844 64.3761 82.588 64.3402C82.6484 63.4973 82.8086 62.1338 82.492 61.3447C82.4814 61.3267 82.4688 61.2911 82.4582 61.2732C82.636 61.2732 82.7818 61.2016 82.8583 61.1478C83.0557 61.0223 83.2798 60.699 83.1945 60.1789C83.0878 59.5512 82.4387 58.2062 82.3408 58.0268C82.0812 57.5426 81.7824 57.1304 81.4516 56.7896C81.3591 56.6282 81.2382 56.5565 81.1563 56.5206C80.9732 56.3592 80.7811 56.216 80.5802 56.0905C80.4823 55.9829 80.4023 55.8927 80.3862 55.8747C80.2315 55.7312 79.1823 54.7634 78.5029 54.2074C78.3357 54.0101 78.1952 53.7946 78.1009 53.5615C77.9551 53.2207 77.5585 53.0593 77.2152 53.2028C76.9271 53.3283 76.7689 53.6335 76.8133 53.9384Z" fill="black"/>
<path fill-rule="evenodd" clip-rule="evenodd" d="M82.4655 64.4297C82.1454 64.3041 81.7702 64.4291 81.6083 64.7519C81.5052 64.9492 81.5123 65.1108 81.5461 65.2542C81.5799 65.3977 81.6492 65.5053 81.7648 65.6129C81.8573 65.7026 82.069 65.8105 82.3891 65.8105C82.5154 65.7925 82.759 65.7742 82.9671 65.7383C82.9902 65.7383 83.0151 65.7565 83.0418 65.7565C83.1201 65.7924 83.378 65.7923 83.6003 65.7026C83.8546 65.6129 84.0181 65.3799 84.0555 65.3082C84.1124 65.1826 84.1249 65.0571 84.1125 64.9495C84.0911 64.7343 84.0075 64.4651 83.6215 64.3575C83.5237 64.3216 83.3441 64.3041 83.1218 64.34C82.9279 64.3579 82.6683 64.4117 82.4655 64.4297Z" fill="black"/>
<path fill-rule="evenodd" clip-rule="evenodd" d="M62.6335 54.0097C62.6122 54.207 62.6762 54.4225 62.8273 54.566C63.3662 55.104 64.3213 55.8209 65.1234 56.0182C66.1371 56.7715 67.2575 57.2379 68.6589 56.9689C69.0342 56.8971 69.4148 56.6821 69.7936 56.4848C69.8612 56.4489 69.927 56.4128 69.9946 56.3769C70.112 56.359 70.2257 56.3412 70.3129 56.3412C70.4054 56.3053 70.61 56.2516 70.706 56.2158C70.7772 56.1799 70.834 56.1438 70.8749 56.1079H70.8945C71.7855 55.9644 72.5912 56.2158 73.4627 56.2158C73.8344 56.2158 74.1366 55.9107 74.1366 55.5341C74.1366 55.1575 73.8344 54.8525 73.4627 54.8525C72.5236 54.8525 71.6557 54.6193 70.6953 54.7628C70.1885 54.8346 69.1943 55.0858 69.1943 55.0858C68.9738 55.1575 68.8048 55.3186 68.7301 55.5159C68.6198 55.5697 68.5096 55.6059 68.3976 55.6238C67.3749 55.839 66.5764 55.4264 65.8419 54.8525C64.9437 54.171 64.1327 53.2744 63.231 52.6647C62.7082 52.306 62.3596 52.7005 62.3027 52.7543C62.2013 52.8799 62.0235 53.149 62.2138 53.5256C62.2423 53.5794 62.4539 53.8124 62.6335 54.0097Z" fill="black"/>
<path fill-rule="evenodd" clip-rule="evenodd" d="M53.0814 69.0915C52.7809 69.9703 52.1921 70.741 51.9058 71.6198C51.8418 71.8171 51.9485 72.0326 52.1442 72.0864C52.3416 72.1581 52.5532 72.0504 52.6172 71.8531C52.9017 70.9743 53.4886 70.2031 53.791 69.3423C53.8586 69.145 53.7537 68.93 53.5598 68.8582C53.3642 68.7865 53.1508 68.8942 53.0814 69.0915Z" fill="#FF4400"/>
<path fill-rule="evenodd" clip-rule="evenodd" d="M55.3079 69.0558C54.9913 69.289 54.5146 70.0063 54.1945 70.6699C53.9722 71.1541 53.8281 71.6205 53.8281 71.8896C53.8281 72.1048 53.9971 72.2665 54.2034 72.2665C54.4097 72.2665 54.5787 72.1048 54.5787 71.8896C54.5787 71.6923 54.7067 71.3518 54.8721 71.0111C55.1335 70.4551 55.5 69.8451 55.7596 69.6478C55.9232 69.5222 55.957 69.2894 55.8325 69.128C55.708 68.9666 55.4715 68.9303 55.3079 69.0558Z" fill="#FF4400"/>
<path fill-rule="evenodd" clip-rule="evenodd" d="M27.589 27.8787H27.5755C27.4646 27.8182 27.3072 27.7879 27.1049 27.8332C27.0284 27.8634 26.9385 27.8935 26.8381 27.9389C26.8096 27.8784 26.7646 27.8183 26.7091 27.773C26.6402 27.7276 26.5083 27.6668 26.2879 27.7122C26.141 27.7575 25.9867 27.8331 25.8278 27.9389C25.7828 27.9389 25.7334 27.9394 25.6794 27.9696C25.633 27.9847 25.5475 28.0301 25.4486 28.1207C25.2402 28.3021 24.8565 28.7252 24.6751 28.9066C24.5537 29.0275 24.2465 29.3145 23.9092 29.647C23.4415 29.9342 22.9589 30.2669 22.5886 30.5994C22.1375 30.9924 21.8542 31.4157 21.8242 31.7785C21.8167 31.8692 21.8392 31.9447 21.8767 32.0052C21.8947 32.0354 21.9636 32.1258 22.0835 32.1711L22.0655 32.2018C21.9081 32.5495 22.1435 32.7304 22.2454 32.7757C22.142 32.9118 22.0625 33.0176 22.0176 33.078C21.8077 33.3954 22.085 33.6073 22.103 33.6224C22.1434 33.6526 22.3623 33.7886 22.5796 33.5769C22.6126 33.5467 22.821 33.2901 22.9019 33.1843C23.1402 32.8971 23.3786 32.5947 23.6184 32.3075C23.6649 32.3075 23.7174 32.2923 23.7743 32.262C23.9107 32.1865 24.7456 31.4461 25.2237 30.9926C25.3407 30.8868 25.462 30.7658 25.5879 30.6448C25.0918 31.4157 24.6541 32.2321 24.3633 33.1087C24.2974 33.3052 24.4038 33.5165 24.6002 33.5769C24.795 33.6525 25.0079 33.5467 25.0739 33.3502C25.4801 32.1259 26.1965 31.0226 26.94 29.9948C27.1693 29.6622 27.4151 29.3598 27.6519 29.0424C27.7464 28.9215 27.9712 28.6645 28.0701 28.5134C28.238 28.3773 28.4014 28.2412 28.5633 28.09C28.8436 27.8482 28.6397 27.5765 28.6232 27.5462C28.5858 27.5009 28.4224 27.3344 28.1646 27.4553C28.1196 27.4704 27.8394 27.682 27.7344 27.7576C27.685 27.803 27.637 27.8333 27.589 27.8787Z" fill="black"/>
<path fill-rule="evenodd" clip-rule="evenodd" d="M34.8733 32.0191C34.6409 32.0795 34.4776 32.1254 34.4671 32.1254C33.4733 32.4125 32.4885 32.7146 31.4992 33.0169C30.4739 33.3343 24.9325 34.8308 22.5597 36.0098C22.173 36.1912 21.8657 36.3873 21.6618 36.5536C21.47 36.7199 21.3576 36.8713 21.3111 37.0224C21.2526 37.1887 21.2556 37.4303 21.3246 37.6872C21.428 38.0802 21.6798 38.564 21.8837 39.0175C21.8777 39.0326 21.8702 39.0476 21.8642 39.0476C21.7158 39.3197 21.5269 39.5618 21.353 39.8187C21.2121 40.0152 20.7475 40.6654 20.2349 41.1944C20.007 41.4212 19.7717 41.6177 19.5543 41.7235C19.4689 41.7537 19.391 41.7839 19.3341 41.7235C19.1017 41.4514 19.0058 41.0433 18.9623 40.5898C18.8859 39.7887 18.9893 38.836 19.0537 37.9896C19.1002 37.3698 19.1272 36.8107 19.0717 36.3724C19.0268 36.0096 18.9174 35.7228 18.7525 35.5263C18.6266 35.3902 18.4722 35.3444 18.2848 35.42C18.2009 35.4502 18.0555 35.5564 17.9191 35.7831C17.4859 36.4784 16.6884 38.579 16.6315 38.7453C16.534 39.0476 16.4202 39.3804 16.3018 39.7431C16.2703 38.5642 16.2673 37.2338 16.3512 36.1757C16.5956 35.4049 16.9343 34.4375 16.9867 34.2108C17.0527 33.9538 16.9028 33.8179 16.8788 33.8028C16.7919 33.7272 16.69 33.6973 16.5671 33.7124C16.3887 33.7427 16.2178 33.848 16.0784 34.0596C16.0034 34.1654 15.9345 34.3169 15.8745 34.4983C15.6242 34.589 15.3994 34.7552 15.203 34.9819C14.8343 35.4051 14.5585 36.0702 14.3741 36.8713C14.1208 37.9898 14.0294 39.3956 14.0294 40.7711C14.0054 41.0129 13.9844 41.2549 13.9664 41.4967C13.917 42.1164 13.887 43.1139 13.914 43.5674C13.923 43.7488 13.9499 43.8694 13.9709 43.9299C14.0249 44.0508 14.1118 44.1264 14.1883 44.1566C14.2602 44.9275 14.3457 45.532 14.4161 45.8494C14.4371 45.9552 14.4731 46.0308 14.5151 46.0761C14.6065 46.3482 14.8598 46.3487 14.8883 46.3336C14.9947 46.3336 15.1071 46.3031 15.191 46.1671C15.3289 45.9403 15.4293 45.5778 15.4953 45.1244C15.5477 45.4267 15.6302 45.7137 15.7457 45.9858C15.8251 46.1672 15.948 46.2122 16.0184 46.2273C16.1488 46.2575 16.2882 46.2429 16.4066 46.1068C16.4396 46.0615 16.4861 45.9859 16.513 45.8801C16.546 45.7441 16.5641 45.4567 16.5641 45.3357C16.5641 44.5044 16.4936 43.6733 16.4471 42.8571C16.4411 42.7362 16.4262 42.5091 16.4082 42.1917C16.663 40.9976 17.0647 39.8187 17.3435 38.9874C17.3839 38.8665 17.8651 37.5819 18.2698 36.7355C18.2923 36.675 18.3163 36.6297 18.3403 36.5843L18.3462 36.6599C18.3792 37.2192 18.3043 37.9291 18.2473 38.6697C18.1874 39.4557 18.1469 40.2722 18.2518 40.9523C18.3297 41.4511 18.4931 41.8896 18.7644 42.207C19.0897 42.6 19.5499 42.5999 20.049 42.3127C20.824 41.8441 21.7473 40.5591 21.9631 40.2568L21.9796 40.2267C21.9901 40.2418 22.0006 40.2571 22.0111 40.2722C22.0935 40.378 22.1954 40.4236 22.3049 40.4387C22.4098 40.4538 22.5522 40.4236 22.6976 40.2875C22.8115 40.1666 22.8789 40.0152 22.8894 39.8187C22.8984 39.6524 22.8564 39.4406 22.771 39.1988C22.75 39.1383 22.7275 39.078 22.7021 39.0175C22.726 38.957 22.7425 38.9116 22.7485 38.8965C22.84 38.6093 22.6047 38.4735 22.5762 38.4584C22.5717 38.4432 22.5117 38.428 22.4293 38.4129C22.3259 38.1862 22.2209 37.9744 22.14 37.7628C22.0905 37.6268 22.0501 37.5061 22.0291 37.4003C22.0186 37.355 22.0081 37.2947 22.0216 37.2645C22.029 37.2343 22.0531 37.2192 22.08 37.1889C22.1415 37.1285 22.2254 37.0675 22.3243 37.0071C22.6811 36.7652 23.2282 36.5083 23.8817 36.2513C26.5183 35.1781 30.8307 34.0146 31.7181 33.7426C32.7029 33.4403 33.6832 33.1376 34.6724 32.8504H34.6859C34.7324 32.9562 34.8193 33.0474 34.9512 33.1078C33.9814 33.7427 32.7928 34.3468 32.3551 34.7398C32.2577 34.8154 32.1093 34.9363 32.0478 35.0421C31.9684 35.1933 31.9578 35.3444 32.0298 35.4956C32.0658 35.5711 32.1378 35.6773 32.3146 35.7075C32.3326 35.7075 32.4211 35.7228 32.562 35.6774C32.7703 35.617 33.3219 35.4355 34.0219 35.1785C34.0623 35.2087 34.1718 35.2991 34.3577 35.2688C34.3771 35.2688 34.4041 35.2541 34.4386 35.2541C34.4206 35.3145 34.4101 35.3902 34.4071 35.4507C34.4011 35.5716 34.4401 35.6774 34.5015 35.753C34.5765 35.8437 34.7234 35.934 34.9512 35.9189C35.3529 35.9038 36.3917 35.4053 36.4726 35.3751C36.8818 35.1786 37.8921 34.8306 38.5636 34.4074C38.9218 34.1958 39.1886 33.9389 39.2995 33.6971C39.3835 33.5157 39.3505 33.3794 39.3131 33.3039C39.2621 33.1829 39.1721 33.1074 39.0267 33.0771C38.9818 33.062 38.9188 33.0624 38.8424 33.0624C38.9128 33.0321 38.9833 32.9867 39.0522 32.9413C39.1062 32.9262 39.1542 32.8962 39.1946 32.8811C39.1976 32.866 39.6788 32.6242 39.7702 32.5788C39.8706 32.5032 39.9201 32.4277 39.9426 32.3521C39.9635 32.3219 39.98 32.2914 39.989 32.2612C40.0145 32.1856 40.019 32.1102 40.007 32.0498C40.013 32.0347 40.016 32.0041 40.019 31.989C40.0445 31.7774 39.9531 31.6262 39.7717 31.5355C39.6998 31.5053 39.5919 31.4749 39.472 31.4901C39.3296 31.4901 39.1556 31.5355 39.1302 31.5355C38.3837 31.7018 37.6507 31.9289 36.9103 32.1254C36.9253 32.0196 36.8938 31.9134 36.8279 31.8378C36.7829 31.7774 36.6899 31.6867 36.5161 31.6867C36.4786 31.6716 36.4202 31.6867 36.3467 31.6867C37.267 31.0972 38.5231 30.568 39.0163 30.3564C39.2066 30.2808 39.2966 30.0546 39.2171 29.8581C39.1362 29.6767 38.9174 29.5859 38.7255 29.6615C38.1229 29.9184 36.4471 30.6286 35.4818 31.3844C35.2225 31.5809 35.0157 31.8075 34.8733 32.0191ZM15.5553 40.3932L15.5373 40.6199C15.5568 41.2397 15.5777 41.8746 15.5882 42.4792C15.6092 42.3583 15.6302 42.2524 15.6542 42.1314C15.6272 41.6326 15.5927 40.9526 15.5688 40.2119L15.5553 40.3932Z" fill="black"/>
<path fill-rule="evenodd" clip-rule="evenodd" d="M14.7236 42.8735C14.5017 41.2864 14.2889 38.8833 14.244 38.5054C14.217 38.2787 14.0865 38.2029 14.0775 38.1878C13.9381 38.0971 13.8048 38.0975 13.6789 38.173C13.6444 38.1881 13.5094 38.2637 13.49 38.4753C13.4885 38.4905 13.4945 38.6716 13.52 39.0646C13.5245 39.1099 13.5394 39.1704 13.5649 39.2157C13.7103 40.6214 14.0416 43.8563 14.2829 44.4458C14.3114 44.5214 14.4358 44.8539 14.5497 44.9748C14.6756 45.1109 14.821 45.1409 14.9454 45.1106C15.0788 45.0955 15.2227 45.0048 15.3067 44.8083C15.3996 44.5967 15.4146 44.0977 15.4191 44.0372C15.4625 43.4477 15.5315 40.546 15.7219 38.5054C15.7608 38.0822 15.8043 37.704 15.8553 37.3866C15.9032 37.5831 15.9542 37.825 16.0082 38.1122C16.0456 38.3238 16.242 38.4599 16.4458 38.4145C16.6482 38.3843 16.7831 38.188 16.7441 37.9764C16.6032 37.2207 16.4743 36.7517 16.3604 36.4797C16.2854 36.2983 16.2015 36.193 16.1325 36.1325C16.0006 36.0267 15.8672 35.9963 15.7443 36.0115C15.6064 36.0417 15.4041 36.1778 15.2872 36.5104C14.9514 37.4626 14.803 40.9841 14.7236 42.8735Z" fill="black"/>
<path fill-rule="evenodd" clip-rule="evenodd" d="M11.4321 40.922C11.0229 41.0581 10.4534 41.3905 10.4534 42.3125C10.4534 42.8113 10.5178 43.3254 10.6242 43.8394C10.5537 44.2626 10.5958 44.7913 10.7562 45.3656C10.8461 45.683 10.9765 46.0307 11.1159 46.3481C11.2718 46.9527 11.4457 47.4516 11.5926 47.7539C11.6855 47.9504 11.7888 48.1015 11.8983 48.2375C11.9882 48.4793 12.0782 48.7213 12.1681 48.9631C12.2056 49.0538 12.2911 49.311 12.3045 49.3564C12.6943 50.4295 13.7524 50.2934 13.7869 50.2934C13.7929 50.2934 13.9728 50.248 14.1946 50.1422L14.2591 50.1269H14.3085C14.6398 50.535 15.073 50.6105 15.3578 50.6105C15.6051 50.6256 15.8704 50.5807 16.1282 50.4144C16.3201 50.49 16.497 50.5048 16.6364 50.5048C17.137 50.5048 17.5432 50.3082 17.8325 49.8547C17.9344 49.7035 18.1098 49.3866 18.0543 48.9029C18.0379 48.7518 17.777 48.0109 17.768 47.9807C17.6196 47.633 17.4743 47.27 17.3304 46.9073C17.2509 46.7108 16.3576 44.504 16.0818 44.111C15.6456 43.4761 15.1014 43.3857 14.7087 43.4461C14.6713 43.1136 14.6144 42.6754 14.5529 42.358C14.4675 41.9196 14.3385 41.5264 14.1977 41.2845C13.742 40.4532 13.0539 40.257 12.4004 40.393C12.0272 40.4837 11.7004 40.65 11.4321 40.922Z" fill="black"/>
<path fill-rule="evenodd" clip-rule="evenodd" d="M18.2581 53.9674C18.5893 54.1639 18.9506 54.3299 19.2999 54.4811C19.9969 54.7532 20.6504 54.8741 20.9621 54.859C21.4433 54.8136 21.764 54.6018 21.9709 54.3902H21.9829C22.6499 54.5262 23.3454 54.179 23.6062 53.514C23.8565 52.8791 23.6302 52.1837 23.0996 51.8058C23.0666 51.7303 23.0112 51.594 22.9692 51.4882C22.9407 51.0801 22.7743 50.6572 22.4071 50.2642C22.0384 49.8712 21.6951 49.8256 21.5497 49.7954C21.157 49.7349 20.8422 49.8409 20.5829 49.992C20.3506 50.1432 20.0732 50.3848 19.9578 50.808C19.6056 50.5662 19.2294 50.3397 18.9536 50.2187C18.4739 50.0374 18.0572 50.0522 17.7529 50.1278C17.9208 49.7197 17.9058 49.2511 17.672 48.843C17.2763 48.1629 16.4024 47.9364 15.7234 48.3294C15.4986 48.4654 15.2662 48.6013 15.0114 48.6618C15.0189 48.6618 15.0714 48.6464 15.0714 48.6464C15.0714 48.6464 14.4194 48.7977 14.3144 48.843C13.2382 49.3267 13.4166 50.2944 13.5335 50.6421C13.6264 50.9142 13.9023 51.3521 14.3939 51.7905C15.0579 52.3951 16.2016 53.166 17.1294 53.6043C17.5311 53.8008 17.9148 53.9221 18.2581 53.9674Z" fill="black"/>
<path fill-rule="evenodd" clip-rule="evenodd" d="M30.8384 11.2221C30.3468 12.0232 30.1069 12.8996 30.1999 13.8519C30.2763 14.6228 30.735 15.3184 31.6733 15.8021C32.739 16.3462 34.7371 16.6331 36.7381 16.8749C37.9568 17.0261 39.1754 17.1775 40.0957 17.4193C40.1811 17.4495 40.2741 17.4794 40.3655 17.5096C40.2366 17.6306 40.0942 17.7519 39.9728 17.8426C39.0675 18.5379 38.1216 19.2633 37.7634 19.9889C37.4111 20.6993 37.696 21.5607 38.3989 21.9084C39.1019 22.2711 39.9578 21.9841 40.3101 21.2737C40.4015 21.0923 40.6248 20.941 40.8467 20.7747C41.2679 20.4422 41.7475 20.1094 42.1522 19.7769C43.0846 18.9909 43.6152 18.0694 43.5597 17.1625C43.5178 16.4672 43.1849 15.8624 42.5134 15.3788C41.755 14.8346 40.3011 14.4565 38.6358 14.2298C36.9105 13.9879 34.929 13.8368 33.5934 13.474C33.4435 13.4287 33.2652 13.3532 33.1243 13.2928C33.8812 13.2625 34.4853 12.6428 34.4853 11.8568C34.4853 11.7359 34.4973 11.6001 34.5198 11.4943C36.2465 10.8292 38.0542 9.69536 39.4137 8.98495C39.4677 8.96983 40.0073 8.71287 40.2906 8.53149C40.5349 8.36523 40.6982 8.18396 40.7897 8.04793C41.1134 7.59447 41.1105 7.14067 41.01 6.7779C40.9006 6.40003 40.5859 5.79542 39.7135 5.71985C39.643 5.62916 39.5576 5.55393 39.4617 5.47836C39.3013 5.34232 38.9581 5.1156 38.3855 5.17606C38.0048 5.20629 35.9827 5.96169 35.8523 6.02215C35.1403 6.3698 32.2279 8.03258 31.2941 9.01506C30.4697 9.8615 30.5671 10.7384 30.8384 11.2221Z" fill="black"/>
<path fill-rule="evenodd" clip-rule="evenodd" d="M70.5404 31.2032C68.6278 34.196 65.8773 36.2971 62.6936 37.8993C61.7178 38.2016 60.7509 38.5342 59.7916 38.8818C59.6657 38.9272 57.6242 39.743 57.2929 40.0302C56.9902 40.2872 56.8298 40.5595 56.7609 40.8013L56.3457 40.9224C56.2497 40.9526 56.1523 40.9828 56.0563 40.9979L55.9319 41.028C54.493 40.8618 52.9282 40.9827 51.6136 41.1036C51.095 41.1641 50.5763 41.2399 50.0637 41.3457C50.0367 41.3457 49.8299 41.4062 49.6095 41.4968C47.7509 41.1492 45.9627 40.6047 44.1205 39.6222C43.7398 39.4257 43.3591 39.2145 42.9829 39.0029C43.0683 38.7308 43.0818 38.4131 42.9679 38.0806C42.9079 37.8992 42.7985 37.6876 42.6156 37.476C42.5766 37.4306 42.5301 37.3855 42.4792 37.3402C42.6036 37.189 42.6996 37.0374 42.767 36.856C42.9964 36.2817 42.8614 35.8587 42.725 35.5866C42.5481 35.2238 42.2619 34.9518 41.8227 34.8308C41.6203 34.7704 41.3041 34.7248 40.9159 34.8155C40.6326 34.8911 40.1319 35.1485 39.8711 35.2241C39.7662 35.2543 39.6583 35.2844 39.5474 35.3298C39.4589 35.3298 39.378 35.3448 39.3105 35.3599C39.0437 35.3901 38.8069 35.4504 38.6015 35.5411C38.2538 35.4202 37.921 35.3751 37.6137 35.4053C36.9782 35.4809 36.6214 35.8283 36.4236 36.2969C36.3441 36.4934 36.2902 36.7351 36.3157 37.0072C36.3337 37.2037 36.4371 37.5063 36.521 37.6726C36.5555 37.7331 36.593 37.8088 36.632 37.8692C36.7099 38.0506 36.8238 38.2014 36.9647 38.3374C37.239 38.6851 37.5658 38.9873 37.912 39.2745C38.2448 39.6523 38.672 39.9395 39.1382 40.1814L39.2086 40.2268C39.5263 40.4233 39.8471 40.6353 40.1754 40.8167C40.3283 40.9074 40.718 41.1487 40.7824 41.1638C40.8919 41.1941 40.9953 41.2243 41.0942 41.2394C41.6563 41.5568 42.2244 41.8594 42.797 42.1617C45.2102 43.4465 47.5351 44.0812 50.0053 44.4591C50.2976 44.5346 50.6183 44.5652 50.9616 44.5954C51.9838 44.7164 53.036 44.8222 54.1332 44.8977C54.5409 44.928 56.7204 45.1547 57.7411 44.8977C58.4996 44.7013 58.9387 44.2627 59.1291 43.8243C59.2385 43.5825 59.297 43.3253 59.2685 43.0532C61.0313 42.494 62.5886 41.9197 63.5074 41.5872C64.0111 41.4058 65.6959 40.9978 66.7946 40.499C67.643 40.106 68.205 39.562 68.4104 39.1085C68.6127 38.6702 68.5768 38.2924 68.4419 37.9448C68.4149 37.8843 68.3819 37.8084 68.34 37.7328C68.8451 37.355 69.3322 36.9321 69.7984 36.5089C69.8119 37.5065 70.0022 38.292 70.293 38.7454C70.5628 39.1535 70.9001 39.3049 71.1969 39.3654C71.4787 39.4258 71.7679 39.4107 72.0602 39.2898C72.2566 39.2142 72.4949 39.063 72.6958 38.7909C72.8112 38.6246 72.9536 38.3071 73.0136 38.1408C73.2759 37.4002 73.4677 36.6293 73.6701 35.8736C73.6476 36.1607 73.6416 36.4479 73.6551 36.7049C73.6686 36.9618 73.8095 37.5666 74.0628 37.884C74.0868 37.9142 74.1108 37.9444 74.1348 37.9596V38.0351C74.1348 39.0932 74.7343 39.6073 75.184 39.7887C75.6667 39.9701 76.3921 40.0304 76.9542 39.2142C77.0876 39.0177 77.2854 38.549 77.4383 37.9596C77.6691 37.0678 77.8925 35.7984 77.9165 35.6775C77.9495 35.5264 78.1173 34.5283 78.2867 33.3796C78.3227 33.2435 78.3557 33.123 78.3887 32.9869C78.4471 32.7451 78.4531 32.5486 78.4306 32.3823C78.582 31.294 78.7004 30.251 78.6779 29.8429C78.6374 29.1173 78.2762 28.7392 77.9629 28.5427C77.87 27.5149 77.6602 26.699 77.4128 26.2607C77.0411 25.5956 76.515 25.3236 76.0159 25.2782C75.791 25.248 75.5497 25.2631 75.3009 25.3538C75.1825 25.0968 75.0221 24.9003 74.8498 24.7492C74.3866 24.3562 73.811 24.2047 73.1395 24.6128C72.9701 24.7035 72.7123 24.9306 72.4844 25.2782C72.1517 25.7921 71.711 26.8499 71.6885 26.9255C71.3707 27.7871 71.1279 28.709 70.9076 29.6008C70.8266 29.9484 70.6903 30.5079 70.5404 31.2032Z" fill="black"/>
<path fill-rule="evenodd" clip-rule="evenodd" d="M73.4631 51.3974C73.1798 51.7299 73.0208 52.1529 72.9849 52.5912C72.8125 52.954 72.787 53.3469 72.9639 53.755C72.6402 54.2689 72.7211 54.768 72.9219 55.1761C73.0418 55.4029 73.3176 55.8863 74.139 55.9921C74.9904 56.0979 75.5765 55.8408 75.9902 55.4932C76.0502 55.4479 76.1086 55.3878 76.1626 55.3273C76.2225 55.3273 76.278 55.3117 76.3245 55.2966C76.5793 55.2512 76.7607 55.1457 76.8491 55.0852C77.2553 54.8131 77.4007 54.4805 77.4637 54.2084C77.5266 53.9515 77.5281 53.6795 77.4367 53.4226C77.4936 53.2563 77.546 53.1052 77.591 52.939C77.8263 52.0472 77.8998 51.0042 77.7949 50.2938C77.711 49.7346 77.4996 49.3112 77.2763 49.0392C77.047 48.7822 76.8056 48.6459 76.5673 48.5704C76.3245 48.4948 76.0607 48.48 75.7429 48.5556C75.7099 48.5707 75.6754 48.5857 75.644 48.5857C75.4671 47.4067 75.2617 45.7438 75.1148 43.9603C75.2842 43.9451 75.4176 43.8998 75.4791 43.8847C75.8073 43.7789 76.3409 43.522 76.4654 42.7209C76.4788 42.6302 76.4968 42.4491 76.4638 42.2073C76.4398 42.041 76.362 41.678 76.3425 41.5117C76.293 41.1338 76.2435 40.741 76.2075 40.348C76.182 40.0759 76.1611 39.7887 76.1431 39.5166C76.1206 38.8213 76.0981 38.1263 76.0606 37.567C76.0516 37.1892 76.0472 36.7959 76.0442 36.418C76.0427 36.2215 75.9602 34.8311 75.8493 34.1962C75.7609 33.6823 75.5525 33.3494 75.4536 33.2285C75.1163 32.8355 74.7191 32.73 74.3759 32.7148C74.0042 32.7148 73.4481 32.7903 73.0703 33.5007C72.5247 34.5134 72.207 36.1613 72.111 38.0961C71.9132 42.1016 72.5592 47.407 72.9384 49.7347C72.9849 50.0219 73.2187 50.6567 73.4631 51.3974Z" fill="black"/>
<path fill-rule="evenodd" clip-rule="evenodd" d="M55.7758 44.5511C55.506 44.8836 55.3786 45.322 55.4671 45.7603C55.539 46.1231 55.8088 46.7575 56.2614 47.5133C57.0903 48.9039 58.5518 50.8691 59.8004 52.2143C60.0911 52.5318 60.382 52.8038 60.6608 53.0457C61.3862 53.8921 62.3335 54.8291 63.2134 55.2675C64.387 55.8418 65.4873 55.7663 66.3402 54.8896C66.7194 54.5117 66.8048 54.1186 66.8078 53.7861C66.8108 53.4687 66.7254 53.1663 66.5245 52.8792C66.3896 52.6827 66.1618 52.4715 65.817 52.3053C65.6087 52.2146 65.0331 52.0332 64.9132 52.003C64.2597 51.5495 63.5851 51.111 62.9256 50.6727C62.8537 50.582 62.7803 50.4759 62.7053 50.3852C62.428 50.0375 61.9018 49.055 61.4087 48.4202C61.0579 47.9819 60.6757 47.6644 60.352 47.5133C59.9653 46.8936 59.5935 46.2589 59.2817 45.6694C58.9895 45.1252 58.7272 44.3997 58.6118 44.0823C58.8051 43.6893 58.8186 43.2056 58.6102 42.7975C58.258 42.0871 57.4006 41.7998 56.6991 42.1474C56.0651 42.4648 55.5285 43.2814 55.7758 44.5511Z" fill="black"/>
<path fill-rule="evenodd" clip-rule="evenodd" d="M80.5426 64.3059L80.3583 64.5479C79.8457 65.213 80.0824 65.8171 80.0974 65.8776C80.2203 66.2857 80.4692 66.558 80.793 66.7243C81.0343 66.8603 81.3835 66.9814 81.8527 66.8453C82.4927 66.6488 82.9919 66.2255 83.2377 65.5151L83.2931 65.4548C83.3096 65.4246 83.3291 65.4093 83.3501 65.3639C83.527 65.1372 83.6798 64.9407 83.7368 64.8349C83.9511 64.4721 83.9631 64.1851 83.9631 64.049C83.9631 63.7014 83.8792 63.4593 83.7683 63.2779C83.7233 62.6128 83.6334 61.9935 83.4985 61.3738C83.6289 61.2528 83.7368 61.0713 83.8162 60.8748C83.8807 60.6935 83.9407 60.4363 83.9032 60.1037C83.8762 59.877 83.7518 59.499 83.7398 59.4537C83.6199 59.0758 83.1522 57.9573 82.86 57.262C82.8869 57.2166 82.9109 57.1713 82.9319 57.1108C83.2287 56.3853 82.8779 55.5391 82.151 55.2368C81.9246 55.1461 81.7192 55.1008 81.5349 55.0856C81.4689 54.9647 81.3835 54.8437 81.2786 54.7379C80.9248 54.3751 80.6011 54.0883 80.3898 53.9674C80.1379 53.8313 79.9056 53.7705 79.7122 53.7554C79.2266 53.71 78.8279 53.8763 78.5041 54.2088C78.3152 54.4053 77.9974 54.8288 78.0649 55.6601C78.1653 56.8996 79.2925 59.6805 80.036 62.0687C80.2488 62.7489 80.4242 63.3838 80.5096 63.928C80.5276 64.0489 80.5381 64.1849 80.5426 64.3059Z" fill="black"/>
<path fill-rule="evenodd" clip-rule="evenodd" d="M82.2347 55.7196C82.1358 55.3115 82.0309 54.9035 81.9559 54.6314C81.7401 53.8756 80.9517 53.4373 80.1963 53.6489C79.4393 53.8605 79.0016 54.6615 79.2174 55.4173C79.4543 56.2637 79.7046 57.7151 80.0209 58.2744C80.4361 59.0301 81.0506 59.2413 81.5557 59.2261C81.9515 59.211 82.7729 59.0147 83.311 57.6845C83.6092 56.9439 83.26 56.1128 82.533 55.8105C82.4341 55.7651 82.3351 55.7347 82.2347 55.7196Z" fill="black"/>
<path fill-rule="evenodd" clip-rule="evenodd" d="M85.6029 25.1874C85.6419 25.3386 85.8442 26.1246 85.8757 26.6989C85.8817 26.8047 85.8862 26.9108 85.8892 27.0166C85.6959 27.1073 85.5114 27.2737 85.3451 27.5155C85.2806 27.6213 85.2012 27.7571 85.1458 27.9536C85.1128 28.0594 85.0738 28.3917 85.0693 28.5429C85.0618 28.7847 85.0768 30.6441 85.1202 30.9766C85.1337 31.0976 85.1577 31.2036 85.1877 31.2943C85.0978 31.5815 84.9838 31.8833 84.8579 32.1705C84.5431 32.8809 84.1505 33.5613 83.7563 34.2264C83.2766 34.2566 82.8224 34.5287 82.5796 34.9821C82.2978 35.5112 81.7881 36.0554 81.3849 36.6147C80.9727 37.2042 80.652 37.7938 80.5156 38.3984C80.4796 38.5647 80.4152 39.3049 80.5396 39.6224C80.7435 40.1665 81.1317 40.4689 81.6458 40.5747C82.0895 40.6654 82.6665 40.575 83.2331 40.1366C84.0215 39.5169 85.0603 37.7632 85.2672 37.3551C85.9117 36.0854 86.835 34.7405 87.4585 33.3348C87.8108 32.5337 88.0716 31.717 88.1841 30.8857C88.2395 30.7497 88.2905 30.6141 88.337 30.463C88.6472 29.4654 88.7971 27.9085 88.7191 26.533C88.6637 25.5354 88.4778 24.6129 88.205 24.0083C87.9966 23.5549 87.7239 23.2227 87.4391 23.0111C86.8125 22.5274 85.9177 22.6484 85.4455 23.2833C85.0049 23.8728 85.0828 24.7037 85.6029 25.1874Z" fill="black"/>
<path fill-rule="evenodd" clip-rule="evenodd" d="M23.9949 42.2093C21.9888 46.4418 22.8816 51.1763 23.0381 55.6957C23.1928 60.1972 22.3552 65.1291 22.3178 69.8637C22.2769 74.7957 23.0985 79.5304 26.5808 83.458C29.2734 86.4889 32.8393 89.2512 36.8231 90.2555C42.1656 91.6006 48.5165 90.5425 54.0458 87.8344C59.584 85.1084 64.2845 80.7323 66.3475 75.4955C66.5005 75.101 66.312 74.6705 65.9278 74.5091C65.5437 74.3477 65.1061 74.5447 64.9549 74.9393C63.02 79.8532 58.5827 83.9245 53.3896 86.4711C48.1875 89.0357 42.2136 90.0577 37.1876 88.7843C33.4884 87.8518 30.1964 85.2516 27.6959 82.4359C24.4804 78.8311 23.7797 74.4372 23.817 69.882C23.8544 65.1114 24.6903 60.1798 24.5355 55.6425C24.3879 51.3741 23.4472 46.8725 25.3484 42.8552C25.5262 42.4786 25.3679 42.03 24.9944 41.8506C24.6209 41.6713 24.1727 41.8327 23.9949 42.2093Z" fill="black"/>
<path fill-rule="evenodd" clip-rule="evenodd" d="M65.1806 62.1157C65.3424 61.8467 65.8457 61.04 65.8955 60.9682C66.662 60.0715 67.5691 59.2824 68.5615 58.6368C70.2724 57.5249 73.1055 56.6282 75.5011 56.933C76.9612 57.1303 78.256 57.7936 78.9353 59.2463C82.0939 65.9895 76.8367 72.8941 70.2475 74.3468C68.75 74.6696 67.3148 74.2571 65.8191 74.2571C65.4047 74.2571 65.0703 74.5984 65.0703 75.0109C65.0703 75.4234 65.4047 75.764 65.8191 75.764C67.4233 75.764 68.9634 76.1766 70.5676 75.8179C78.0461 74.168 83.8759 66.259 80.2923 58.6011C79.3746 56.6462 77.6637 55.6954 75.6967 55.4444C72.9543 55.0677 69.7068 56.0898 67.7505 57.3632C66.6336 58.0985 65.6127 58.9771 64.7502 59.9994C64.6684 60.107 63.8894 61.2014 63.7187 61.6856C63.4751 62.385 63.8858 62.7437 64.1953 62.8513C64.5883 62.9948 65.0134 62.7797 65.1432 62.3672C65.1699 62.2955 65.1823 62.2054 65.1806 62.1157ZM64.9085 61.5602C64.8409 61.4885 64.759 61.4525 64.6666 61.4166C64.7573 61.4525 64.8391 61.4885 64.9085 61.5602Z" fill="black"/>
<path fill-rule="evenodd" clip-rule="evenodd" d="M36.7941 89.5007C35.9316 91.9936 36.0792 100.907 36.0792 104.243C36.0792 104.656 36.4153 104.996 36.8279 104.996C37.2423 104.996 37.5785 104.656 37.5785 104.243C37.5785 101.015 37.3775 92.4067 38.2098 89.9855C38.345 89.591 38.1386 89.1604 37.7474 89.0349C37.3561 88.8914 36.9293 89.1062 36.7941 89.5007Z" fill="black"/>
<path fill-rule="evenodd" clip-rule="evenodd" d="M37.0489 103.383C36.2592 103.383 34.486 104.136 32.3376 105.337C27.6816 107.92 21.0212 112.422 19.0364 113.641C18.3357 114.054 17.1263 115.111 15.9472 115.865C15.3052 116.295 14.6917 116.636 14.199 116.636C13.7846 116.636 13.4502 116.977 13.4502 117.407C13.4502 117.82 13.7846 118.16 14.199 118.16C14.9068 118.16 15.8334 117.748 16.7582 117.138C17.9266 116.385 19.1218 115.345 19.8154 114.932C21.7913 113.713 28.4232 109.23 33.0614 106.665C34.2228 106.019 35.2561 105.481 36.0493 105.176C36.4797 104.997 36.8177 104.889 37.0489 104.889C37.4632 104.889 37.7993 104.548 37.7993 104.136C37.7993 103.723 37.4632 103.383 37.0489 103.383Z" fill="black"/>
<path fill-rule="evenodd" clip-rule="evenodd" d="M65.7461 101.033C65.6732 100.71 65.538 100.136 65.4829 99.9032C65.2375 98.9168 65.0223 97.9126 64.8017 96.9083C64.0761 93.6263 63.4732 90.3623 62.8649 87.0445C62.8116 86.7575 62.2479 84.2466 61.9953 83.1347C61.9989 83.0629 61.9917 82.9913 61.9722 82.9196C61.8654 82.5071 61.7855 82.3278 61.773 82.2919C61.6894 82.1664 61.5951 82.0945 61.5347 82.0586C61.3568 81.951 61.1878 81.9335 61.042 81.9514C60.8606 81.9694 60.6828 82.0407 60.5405 82.2379C60.521 82.2559 60.3289 82.4711 60.4 82.8656C60.4765 83.314 61.3212 86.9548 61.3906 87.3135C62.0024 90.6492 62.6089 93.9316 63.3381 97.2495C63.5621 98.2538 63.7791 99.2757 64.0299 100.28C64.1348 100.71 64.382 101.805 64.4656 101.948C64.7003 102.361 65.0507 102.36 65.2233 102.343C65.3264 102.325 65.8937 102.217 65.8937 101.482C65.8937 101.32 65.8386 101.159 65.7461 101.033Z" fill="black"/>
<path fill-rule="evenodd" clip-rule="evenodd" d="M66.2122 101.266C66.1838 101.14 66.1197 101.014 66.0219 100.907C65.7355 100.602 65.2607 100.602 64.9619 100.889C64.7112 101.14 64.5316 101.642 65.0046 102.198C65.4599 102.736 66.9859 103.705 67.1015 103.776C68.3179 104.512 69.6269 105.085 70.8629 105.785C73.1749 107.112 75.3927 108.601 77.8594 109.623C79.7233 110.412 83.2322 111.434 86.2272 112.6C88.107 113.335 89.7823 114.106 90.6307 114.931C90.9277 115.218 91.4025 115.219 91.6906 114.914C91.9787 114.627 91.9699 114.142 91.6746 113.855C90.7249 112.923 88.8717 112.008 86.7678 111.183C83.7853 110.018 80.2889 109.013 78.4321 108.224C76.0241 107.22 73.8614 105.767 71.6027 104.476C70.3791 103.776 69.0827 103.221 67.8769 102.485C67.7951 102.431 66.5306 101.499 66.2122 101.266ZM66.0273 101.947L66.0023 101.983C66.0112 101.965 66.0202 101.965 66.0273 101.947ZM66.0521 101.929L66.0344 101.947L66.0485 101.929H66.0521ZM66.0735 101.893L66.061 101.911L66.0717 101.893H66.0735Z" fill="black"/>
<path fill-rule="evenodd" clip-rule="evenodd" d="M36.5312 104.424C38.4644 107.526 40.5043 111.346 43.1489 113.892C43.4477 114.179 43.9225 114.18 44.2088 113.875C44.4934 113.57 44.4827 113.086 44.1839 112.799C41.6229 110.342 39.6702 106.612 37.7992 103.617C37.5787 103.258 37.1163 103.15 36.7659 103.383C36.4155 103.598 36.3106 104.065 36.5312 104.424Z" fill="black"/>
<path fill-rule="evenodd" clip-rule="evenodd" d="M63.9072 101.105C63.7685 101.212 63.258 101.571 62.8489 101.804C61.9704 102.288 60.9834 102.772 60.8357 102.862C57.3197 105.247 53.7628 107.704 50.0351 109.731C48.6888 110.466 47.2464 111.076 45.8112 111.614C45.6831 111.668 44.6124 111.937 44.1251 112.045C43.9615 112.009 43.7819 112.026 43.6201 112.116C43.2181 112.313 43.1577 112.6 43.1399 112.69C43.0883 112.923 43.1488 113.676 43.9811 113.622C44.3546 113.586 46.133 113.121 46.3358 113.031C47.835 112.475 49.3414 111.829 50.7499 111.058C54.5185 108.996 58.1182 106.538 61.6734 104.117C61.8886 103.974 63.9142 103.006 64.7145 102.396C64.9475 102.234 65.1076 102.055 65.1876 101.929C65.2997 101.75 65.3353 101.57 65.3353 101.427C65.3353 101.014 65.0009 100.674 64.5865 100.674C64.286 100.674 64.0281 100.854 63.9072 101.105Z" fill="black"/>
<path fill-rule="evenodd" clip-rule="evenodd" d="M31.8078 108.332C32.2969 108.942 34.4399 111.597 34.7992 112.117C37.0472 115.399 39.2009 118.914 42.2706 121.478C42.4449 121.622 42.6814 121.73 42.9962 121.73C43.3039 121.73 43.7698 121.586 44.3336 121.299C46.0783 120.456 49.1426 118.214 51.3301 116.941C52.1091 116.474 52.7352 116.134 53.1033 116.134C53.5177 116.134 53.8538 115.793 53.8538 115.381C53.8538 114.95 53.5177 114.627 53.1033 114.627C52.6427 114.627 51.8654 114.914 50.9371 115.416C49.1159 116.438 46.5371 118.286 44.6661 119.398C44.1557 119.703 43.7023 119.954 43.3412 120.097C43.2541 120.133 43.1455 120.169 43.0691 120.187C40.1879 117.73 38.164 114.376 36.0334 111.256C35.5959 110.628 32.8411 107.202 32.697 107.077C32.2293 106.664 31.8025 106.988 31.7171 107.059C31.694 107.077 31.2049 107.561 31.6513 108.171C31.6976 108.243 31.7491 108.296 31.8078 108.332Z" fill="black"/>
<path fill-rule="evenodd" clip-rule="evenodd" d="M69.9897 106.235C70.3419 106.163 70.6086 105.858 70.6086 105.482C70.6086 105.069 70.2725 104.729 69.8599 104.729C69.7834 104.729 69.6518 104.746 69.4793 104.8C69.2392 104.89 68.7377 105.159 68.0672 105.536C64.9602 107.275 57.8605 111.669 56.7774 112.225C56.4093 112.422 56.2617 112.871 56.4502 113.247C56.637 113.624 57.0887 113.768 57.4569 113.57C58.5435 113.014 65.6752 108.602 68.7946 106.845C69.3638 106.522 69.9115 106.271 69.9897 106.235Z" fill="black"/>
<path fill-rule="evenodd" clip-rule="evenodd" d="M38.8984 90.8459C44.2979 94.092 49.957 95.3477 56.1692 96.065C57.1633 96.1906 58.7053 96.5312 60.1245 96.6388C61.2112 96.6926 62.232 96.6028 62.9665 96.2262C63.3365 96.0468 63.484 95.5989 63.299 95.2223C63.1123 94.8456 62.6606 94.7018 62.2907 94.8811C61.7571 95.1501 61.0101 95.1682 60.2205 95.1144C58.828 95.0247 57.3163 94.6844 56.3417 94.5588C50.3465 93.8773 44.8776 92.6757 39.6667 89.5373C39.311 89.322 38.8522 89.4476 38.6388 89.8063C38.4271 90.165 38.5427 90.6307 38.8984 90.8459Z" fill="black"/>
<path fill-rule="evenodd" clip-rule="evenodd" d="M37.5505 57.5616C37.6003 57.4002 37.5843 57.2029 37.4936 57.0236C36.6453 55.3736 34.7672 54.4591 32.5601 54.1184C29.4958 53.6521 25.8232 54.2795 23.9576 55.0866C23.1217 55.4632 21.7434 55.9114 20.8293 56.6467C20.0379 57.2744 19.5612 58.0994 19.7071 59.1575C19.9276 60.7536 21.1228 61.991 22.0173 63.2284C25.0354 67.443 28.9445 68.412 32.0693 67.2104C35.1709 66.0088 37.579 62.5831 37.579 57.7767C37.579 57.705 37.5701 57.6334 37.5505 57.5616ZM36.0992 57.5973C35.4199 56.4316 33.9669 55.8574 32.336 55.6064C29.567 55.1939 26.2448 55.7323 24.5588 56.4856C23.9239 56.7546 22.9403 57.0774 22.1489 57.5616C21.5976 57.9024 21.1014 58.2971 21.1921 58.9606C21.2775 59.5704 21.5727 60.1083 21.9195 60.6104C22.3321 61.2202 22.8211 61.776 23.232 62.3499C25.7414 65.8471 28.9338 66.7975 31.5303 65.7932C34.15 64.7888 36.0797 61.8298 36.0797 57.7767C36.0797 57.705 36.0868 57.6512 36.0992 57.5973Z" fill="black"/>
<path fill-rule="evenodd" clip-rule="evenodd" d="M41.7066 59.9814C41.5057 62.8867 42.3397 64.895 43.686 66.1862C45.9945 68.3921 49.9587 68.4643 53.3823 66.9757C57.1633 65.3079 60.2205 61.757 59.6514 57.3452C59.5838 56.8072 59.0859 56.233 58.2571 55.8026C56.9108 55.1211 54.6699 54.6545 54.0688 54.529C51.9648 54.0806 48.9308 53.4891 46.4231 53.8298C45.0413 54.0092 43.8141 54.4752 42.9231 55.336C42.0161 56.2148 41.4309 57.5063 41.4309 59.3894C41.4309 59.6226 41.5377 59.8379 41.7066 59.9814ZM58.1699 57.5778C58.1433 57.5419 58.0472 57.4523 57.9725 57.3984C57.7325 57.2191 57.4052 57.0578 57.0441 56.9144C55.8223 56.4301 54.2359 56.1073 53.7611 56.0177C51.7959 55.5872 48.9646 55.0136 46.6205 55.3185C45.5783 55.462 44.6339 55.7846 43.9617 56.4303C43.5277 56.8428 43.2165 57.4167 43.0565 58.134C43.2717 58.2954 43.3926 58.5645 43.3463 58.8514C42.8555 61.8464 43.4495 63.8731 44.7175 65.0927C46.6329 66.9219 49.9392 66.8321 52.7848 65.5767C55.9593 64.1958 58.627 61.2902 58.1699 57.5778Z" fill="black"/>
<path fill-rule="evenodd" clip-rule="evenodd" d="M59.1301 58.9057C62.1713 58.9057 65.2072 57.7939 68.2733 57.7939C68.6877 57.7939 69.0237 57.4531 69.0237 57.0226C69.0237 56.6101 68.6877 56.2695 68.2733 56.2695C65.2072 56.2695 62.1713 57.3988 59.1301 57.3988C58.7157 57.3988 58.3796 57.7401 58.3796 58.1526C58.3796 58.5651 58.7157 58.9057 59.1301 58.9057Z" fill="black"/>
<path fill-rule="evenodd" clip-rule="evenodd" d="M54.9847 52.5565C55.1003 52.8255 55.3654 53.023 55.673 53.023C56.0874 53.023 56.4236 52.6824 56.4236 52.2699C56.4236 52.0189 56.2919 51.6599 55.9025 51.355C55.2836 50.8708 53.722 50.2429 53.4766 50.1353C50.0495 48.593 47.3266 48.8446 43.8141 49.5441C43.4086 49.6337 43.1437 50.0283 43.2255 50.4408C43.3056 50.8353 43.6986 51.1038 44.1058 51.0321C47.2893 50.3864 49.7596 50.118 52.8666 51.5168C53.0196 51.5706 53.7203 51.8572 54.3339 52.1621C54.5775 52.2876 54.8816 52.4847 54.9847 52.5565Z" fill="black"/>
<path fill-rule="evenodd" clip-rule="evenodd" d="M26.2055 53.4181C26.3726 53.3464 26.9862 53.0953 27.5179 52.9698C29.2591 52.5931 31.8788 52.3957 33.6039 52.4675C34.2228 52.5033 34.7084 52.5392 34.9342 52.6468C35.3041 52.8261 35.7541 52.683 35.939 52.3063C36.124 51.9297 35.9746 51.4811 35.6047 51.3017C35.233 51.1045 34.3918 50.9789 33.3158 50.9431C31.0785 50.8893 27.7403 51.2306 26.1361 51.7865C25.5812 51.9838 25.1971 52.2525 25.0032 52.4857C24.8236 52.7009 24.7471 52.9517 24.7471 53.1848C24.7471 53.5973 25.0832 53.9386 25.4958 53.9386C25.8248 53.9386 26.1059 53.723 26.2055 53.4181Z" fill="black"/>
<path fill-rule="evenodd" clip-rule="evenodd" d="M37.9448 59.9287H41.7454C42.158 59.9287 42.4942 59.5881 42.4942 59.1756C42.4942 58.7452 42.158 58.4043 41.7454 58.4043H37.9448C37.5304 58.4043 37.1943 58.7452 37.1943 59.1756C37.1943 59.5881 37.5304 59.9287 37.9448 59.9287Z" fill="black"/>
<path fill-rule="evenodd" clip-rule="evenodd" d="M38.6743 60.968C38.0981 62.7973 37.449 64.0882 37.0898 65.2001C36.7697 66.1865 36.6647 67.0477 36.9119 67.9624C37.1467 68.8232 37.714 69.7559 38.8309 70.8858C39.1226 71.1907 39.5974 71.1907 39.8909 70.8858C40.1843 70.5988 40.1843 70.1142 39.8926 69.8273C38.8913 68.805 38.4076 68.034 38.2974 67.2807C38.1889 66.5096 38.452 65.756 38.8184 64.8414C39.1848 63.9088 39.665 62.8152 40.1025 61.4164C40.2288 61.0218 40.01 60.5913 39.6152 60.4657C39.2221 60.3402 38.8006 60.5735 38.6743 60.968Z" fill="black"/>
<path fill-rule="evenodd" clip-rule="evenodd" d="M34.7098 74.9041C38.233 76.6975 43.1523 76.823 46.3749 74.3661C46.7039 74.115 46.7697 73.649 46.5207 73.3082C46.2717 72.9854 45.8022 72.9135 45.4714 73.1646C42.6863 75.2808 38.4304 75.1014 35.3839 73.559C35.0157 73.3617 34.5641 73.5233 34.3773 73.882C34.1924 74.2586 34.3399 74.7068 34.7098 74.9041Z" fill="black"/>
<path fill-rule="evenodd" clip-rule="evenodd" d="M75.9171 60.5731C76.0185 60.609 76.1323 60.6446 76.2514 60.6446C76.6658 60.6446 77.002 60.304 77.002 59.8915C77.002 59.6404 76.913 59.443 76.7814 59.2995C76.6213 59.1202 76.3173 58.9405 75.8602 59.0123C75.0385 59.1199 72.9666 60.2502 72.8279 60.3398C71.4282 61.3441 70.4981 62.5813 69.6764 63.9085C68.9206 65.128 68.2625 66.4197 67.3502 67.5675C67.0923 67.8903 67.1456 68.3742 67.4711 68.6253C67.7947 68.8943 68.2661 68.8402 68.524 68.5174C69.4719 67.2979 70.1619 65.9709 70.9462 64.7155C71.6647 63.5498 72.4651 62.4558 73.6887 61.577C73.7812 61.5232 75.4316 60.7883 75.9171 60.5731ZM75.5045 59.9272L75.5027 59.8915C75.5027 59.8915 75.5027 59.9093 75.5045 59.9272Z" fill="black"/>
<path fill-rule="evenodd" clip-rule="evenodd" d="M73.2744 62.5819C73.6497 62.7074 73.8222 63.1017 73.9164 63.55C74.0961 64.3571 73.9662 65.3794 73.5251 65.8457C73.2388 66.1506 73.2513 66.6166 73.5501 66.9036C73.8506 67.1905 74.3255 67.1909 74.61 66.8861C75.3196 66.1328 75.6682 64.5187 75.3801 63.2095C75.1632 62.2232 74.6047 61.4341 73.7439 61.1471C73.3526 61.0216 72.9276 61.2366 72.7978 61.6312C72.668 62.0257 72.8814 62.4563 73.2744 62.5819Z" fill="black"/>
<path fill-rule="evenodd" clip-rule="evenodd" d="M31.6456 58.458C31.6598 58.3862 31.6669 58.3321 31.6669 58.2604C31.6669 57.9017 31.5655 57.7403 31.5566 57.7224C31.4268 57.5072 31.2561 57.4178 31.1227 57.3819C30.9324 57.3281 30.7386 57.3278 30.543 57.4534C30.5163 57.4713 30.1962 57.633 30.1606 58.0993C30.1322 58.458 30.0627 60.5558 30.0627 61.0759C30.0627 61.4884 30.3989 61.8297 30.8133 61.8297C31.2259 61.8297 31.562 61.4884 31.562 61.0759C31.562 60.6814 31.6224 59.0677 31.6456 58.458Z" fill="black"/>
<path fill-rule="evenodd" clip-rule="evenodd" d="M48.6267 58.6359C48.6872 58.5283 48.7227 58.4024 48.7227 58.259C48.7227 57.8465 48.3866 57.5059 47.974 57.5059C47.7304 57.5059 47.3462 57.6135 47.1932 58.1336C47.1399 58.3129 47.1061 58.7257 47.1132 59.2278C47.1239 60.1604 47.2235 61.487 47.2235 61.8815C47.2235 62.294 47.5596 62.6353 47.974 62.6353C48.3866 62.6353 48.7227 62.294 48.7227 61.8815C48.7227 61.487 48.6232 60.1422 48.6107 59.2096C48.6089 58.9944 48.6196 58.7614 48.6267 58.6359ZM48.0398 59.0121H48.0238H48.031H48.0398ZM48.0878 59.0121H48.1235C48.1074 59.0121 48.0932 59.0121 48.079 59.0121H48.0878ZM48.1518 58.9945L48.1288 59.0121L48.143 58.9945H48.1518Z" fill="black"/>
<path fill-rule="evenodd" clip-rule="evenodd" d="M30.0967 61.9545C30.1109 62.0083 30.1269 62.044 30.1447 62.0799C30.3226 62.4565 30.7689 62.6179 31.1424 62.4386C31.5034 62.2771 31.6653 61.8466 31.5177 61.4879C31.5177 61.452 31.5177 61.273 31.5284 61.1474C31.5551 60.8605 31.6031 60.5375 31.6102 60.2864C31.6244 59.8022 31.4786 59.4434 31.2776 59.2461C31.0517 59.0309 30.8027 58.995 30.5449 59.0668C30.4346 59.1026 30.2106 59.1745 30.0718 59.4794C30.0363 59.5511 29.9437 60.0177 29.9419 60.0356C29.9259 60.2329 29.9296 61.2728 29.9313 61.4522C29.9331 61.5239 29.9385 61.5596 29.9385 61.5776C29.9616 61.7569 30.0238 61.8827 30.0967 61.9545Z" fill="black"/>
<path fill-rule="evenodd" clip-rule="evenodd" d="M90.4243 45.3464C90.5702 46.0638 91.1393 46.7995 91.888 47.481C92.7879 48.288 93.9475 49.0586 94.4953 49.6863C96.7575 52.2868 98.7867 56.7346 98.7867 60.2318C98.7867 60.6443 99.1211 60.9849 99.5355 60.9849C99.9498 60.9849 100.284 60.6443 100.284 60.2318C100.284 56.4118 98.0949 51.534 95.6211 48.6824C95.0449 48.0189 93.8373 47.2118 92.8929 46.351C92.4127 45.9206 91.9858 45.49 91.8916 45.0417C91.808 44.6292 91.4096 44.3779 91.0059 44.4497C90.6004 44.5394 90.3407 44.9339 90.4243 45.3464Z" fill="black"/>
<path fill-rule="evenodd" clip-rule="evenodd" d="M59.8326 84.4438L59.8611 84.5335C59.918 84.8025 59.9695 85.0897 60.0211 85.3588C60.1812 86.2196 60.391 87.0624 60.5795 87.9053C61.1273 90.3802 61.403 93.0165 62.1641 95.4377C62.278 95.7963 62.6568 95.9936 63.0107 95.886C63.3664 95.7605 63.5638 95.3837 63.45 95.025C62.6995 92.6398 62.4363 90.0396 61.8956 87.6005C61.7107 86.7756 61.5043 85.9502 61.346 85.1073C61.2927 84.8203 61.2411 84.5335 61.1824 84.2645C61.1771 84.2466 61.1131 83.9774 61.0668 83.8519C61.0242 83.7263 60.969 83.6552 60.9387 83.6193C60.7182 83.3323 60.4533 83.3319 60.2879 83.3678C60.1812 83.3857 59.7241 83.4579 59.7241 84.0676C59.7241 84.1932 59.7632 84.3362 59.8326 84.4438ZM61.0721 84.1034C61.0721 84.0854 61.0721 84.0676 61.0721 84.0676V84.1034Z" fill="black"/>
<path fill-rule="evenodd" clip-rule="evenodd" d="M52.888 88.4246L52.5128 88.5507C51.4546 88.9094 50.4017 89.2859 49.3488 89.6625C49.0358 89.7701 48.7228 89.8779 48.4063 89.9855C48.3031 90.0213 48.2018 90.0393 48.0986 90.0751C48.031 90.0931 47.8514 90.1104 47.8265 90.1284C47.6237 90.2001 47.5081 90.3083 47.4441 90.4338C47.0528 90.4876 46.6598 90.5411 46.2667 90.595C45.4593 90.6667 44.6359 90.6667 43.8267 90.595C43.4248 90.5591 42.8468 90.3978 42.4484 90.4696C42.082 90.5234 41.8348 90.8818 41.897 91.2584C41.9575 91.6171 42.3061 91.8684 42.6743 91.8146C42.7827 91.7967 42.9144 91.8145 43.0478 91.8503C43.2861 91.8862 43.5262 91.9403 43.7218 91.9582C44.611 92.03 45.518 92.0297 46.4072 91.94C49.5018 91.6172 52.6141 90.5232 55.5166 89.4292C57.272 88.7657 58.7623 87.9586 60.0482 86.5597C60.3968 86.1831 60.7933 85.7524 61.0209 85.2861C61.0352 85.2682 61.1597 84.9817 61.1864 84.8203C61.2184 84.6051 61.1775 84.4613 61.1312 84.3537C61.0316 84.1385 60.8698 84.0131 60.6493 83.9593C60.4572 83.9234 60.1922 83.9412 59.9219 84.0847C59.6605 84.2282 59.3546 84.5155 59.2248 84.6052C58.444 85.1612 57.6437 85.681 56.8309 86.2011C55.5433 87.0081 54.2432 87.7611 52.888 88.4246Z" fill="black"/>
<path fill-rule="evenodd" clip-rule="evenodd" d="M59.735 86.1116C59.4984 85.9502 59.2459 86.0039 59.0965 86.0577C58.9293 86.1294 58.7337 86.2733 58.659 86.5782C58.6128 86.7576 58.6394 87.1699 58.6448 87.2416C58.6483 87.3134 58.6555 87.3852 58.6626 87.4749C58.2304 87.6184 57.8036 87.7797 57.3768 87.959C56.5604 88.2818 55.7459 88.6224 54.9438 88.9811C53.5068 89.4833 52.052 89.9137 50.5936 90.3262C49.9285 90.5235 49.2598 90.6846 48.5857 90.846L48.472 90.8642C48.2906 90.8463 48.0789 90.8283 47.9811 90.8642C47.7303 90.9359 47.6005 91.0794 47.5329 91.2229C47.5186 91.2408 47.508 91.2585 47.4974 91.2944C47.1096 91.402 46.7183 91.4919 46.496 91.5816C46.4622 91.5995 46.3538 91.6535 46.2275 91.7252C46.1083 91.5279 45.8949 91.4022 45.6531 91.4022C45.5926 91.4022 45.4663 91.42 45.3525 91.438C45.3063 91.42 45.2671 91.4205 45.2368 91.4205C44.963 91.4025 44.7887 91.5097 44.6927 91.6173C44.4526 91.8505 44.4562 92.0655 44.4668 92.1911C44.4864 92.4421 44.6002 92.6575 44.9025 92.783C44.9736 92.801 45.1017 92.8367 45.2724 92.8188L45.5375 92.9266L45.6281 92.9624C45.7188 93.1238 45.87 93.2493 46.0994 93.3211C46.2666 93.3749 46.5548 93.3569 46.7717 93.3211C47.6147 93.5542 48.4701 93.7697 49.3185 93.967C52.3063 94.6485 55.2835 94.9173 58.3247 95.1684C59.3206 95.2581 60.3041 95.4551 61.3001 95.5089C61.3179 95.5089 61.4245 95.5274 61.5579 95.5453C61.6824 95.5991 61.7963 95.599 61.8923 95.5811C62.0079 95.599 62.1093 95.6168 62.152 95.6168C62.7318 95.6526 62.8758 95.1143 62.8847 95.0605C62.9185 94.8812 62.8722 94.5589 62.6908 94.2003C62.5396 93.8954 62.2942 93.5361 62.1306 93.2671C62.0844 93.0878 62.0417 92.9084 62.0008 92.7291C61.8781 92.1731 61.7767 91.6174 61.6771 91.0436C61.4779 89.9137 61.3285 88.7838 61.1453 87.636C61.1204 87.4746 61.0902 86.8467 60.9853 86.5418C60.8964 86.2728 60.7434 86.1119 60.6136 86.0402C60.3717 85.8788 60.1707 85.9146 60.0267 85.9505C59.9182 85.9864 59.8186 86.0399 59.735 86.1116ZM56.7116 93.6622H56.6778H56.7241L56.7258 93.644L56.7116 93.6622ZM53.2187 93.1417L52.6549 93.1957L52.9092 93.2314L53.1636 93.2671C53.176 93.2312 53.1938 93.1776 53.2187 93.1417ZM49.6137 92.568L49.4963 92.6037L49.603 92.6394C49.6066 92.6035 49.6102 92.5859 49.6137 92.568ZM58.5594 90.5952L58.4705 90.6134C58.4936 90.6851 58.5025 90.7384 58.5043 90.7563C58.5078 90.7743 58.5114 90.8104 58.5114 90.8642H58.6057C58.6395 90.8642 58.7853 90.846 58.9596 90.846C58.8475 90.7563 58.7302 90.6669 58.6057 90.5952H58.5594Z" fill="black"/>
<path fill-rule="evenodd" clip-rule="evenodd" d="M59.7671 92.7653C59.8045 92.8191 59.84 92.8904 59.8756 92.9621C59.9698 93.1235 60.4678 94.092 60.6937 94.3072C61.0796 94.6659 61.4442 94.5225 61.6559 94.3611C61.7501 94.2715 61.983 94.0383 61.9101 93.4644C61.871 93.1595 61.6434 92.9445 61.3642 92.8907C61.2237 92.6396 61.0992 92.3704 61.0583 92.2987C60.9747 92.1552 60.8894 91.9938 60.7951 91.8503C60.788 91.8324 60.5692 91.5457 60.5212 91.5099C60.2954 91.3305 60.0819 91.3483 59.9841 91.3663C59.7351 91.4021 59.5412 91.5452 59.4487 91.8321C59.4078 91.9397 59.4007 92.0838 59.4309 92.2272C59.4612 92.3707 59.5803 92.5495 59.6497 92.6392C59.6853 92.693 59.7244 92.7294 59.7671 92.7653Z" fill="black"/>
<path fill-rule="evenodd" clip-rule="evenodd" d="M60.0428 96.2622C61.0548 96.6747 62.5505 96.9257 63.671 96.9257C64.0427 96.9257 64.345 96.6207 64.345 96.244C64.345 95.8674 64.0427 95.5624 63.671 95.5624C62.7035 95.5624 61.4087 95.3476 60.5355 95.0069C60.1887 94.8634 59.7975 95.0423 59.6623 95.3831C59.5254 95.7417 59.6978 96.1367 60.0428 96.2622Z" fill="black"/>
<path fill-rule="evenodd" clip-rule="evenodd" d="M63.5284 95.5633C62.7957 95.5633 62.0577 95.6533 61.3374 95.4919C60.9746 95.4022 60.6135 95.6351 60.5317 96.0117C60.4499 96.3704 60.6793 96.729 61.0421 96.8187C61.8602 96.9981 62.6979 96.9266 63.5284 96.9266C63.9001 96.9266 64.2025 96.6216 64.2025 96.245C64.2025 95.8683 63.9001 95.5633 63.5284 95.5633Z" fill="black"/>
<path fill-rule="evenodd" clip-rule="evenodd" d="M116.045 54.5827C117.046 51.6415 118.714 48.7005 119.243 45.6338C119.307 45.2572 119.059 44.8981 118.693 44.8443C118.327 44.7725 117.976 45.0239 117.912 45.4005C117.397 48.3955 115.748 51.2651 114.77 54.1525C114.649 54.4933 114.836 54.888 115.188 55.0135C115.54 55.1391 115.924 54.9414 116.045 54.5827Z" fill="#FF4400"/>
<path fill-rule="evenodd" clip-rule="evenodd" d="M123.536 56.6991C124.859 55.91 126.371 54.4033 127.916 52.6996C130.138 50.2426 132.444 47.3553 134.379 45.6695C134.66 45.4184 134.691 44.9883 134.445 44.7013C134.201 44.4144 133.775 44.396 133.494 44.6292C131.527 46.3688 129.179 49.2925 126.92 51.7854C125.476 53.3815 124.078 54.7801 122.841 55.5333C122.522 55.7306 122.417 56.143 122.609 56.4658C122.801 56.7886 123.216 56.8963 123.536 56.6991Z" fill="#FF4400"/>
<path fill-rule="evenodd" clip-rule="evenodd" d="M129.067 61.935C128.95 61.935 128.827 61.9534 128.715 62.0072C128.354 62.1865 128.272 62.4197 128.256 62.4555C128.169 62.6887 128.21 62.8858 128.301 63.0293C128.354 63.1369 128.555 63.4415 129.021 63.3698C129.263 63.3339 130.84 62.7604 130.926 62.7245C131.436 62.5093 132.083 62.1502 132.745 61.8453C133.296 61.5763 133.853 61.3431 134.326 61.3431C134.698 61.3431 135 61.0387 135 60.6621C135 60.2855 134.698 59.9805 134.326 59.9805C133.801 59.9805 133.195 60.1595 132.585 60.4106C131.808 60.7514 131.016 61.2181 130.415 61.4692C130.362 61.4871 129.506 61.7915 129.067 61.935Z" fill="#FF4400"/>
<path fill-rule="evenodd" clip-rule="evenodd" d="M27.2544 69.5039C26.9147 70.5082 26.4789 71.4766 26.0806 72.463C26.0023 72.6603 26.0931 72.8761 26.2852 72.9478C26.4772 73.0375 26.696 72.9475 26.7742 72.7503C27.178 71.7459 27.619 70.7776 27.9622 69.7554C28.0298 69.5581 27.9248 69.343 27.7292 69.2713C27.5336 69.2175 27.3202 69.3066 27.2544 69.5039Z" fill="#FF4400"/>
<path fill-rule="evenodd" clip-rule="evenodd" d="M29.2199 69.5579C29.0171 70.0601 28.656 70.6701 28.3999 71.2799C28.2061 71.7462 28.0745 72.1943 28.0745 72.6068C28.0745 72.804 28.2417 72.9837 28.448 72.9837C28.656 72.9837 28.8233 72.804 28.8233 72.6068C28.8233 72.2839 28.9389 71.9433 29.0901 71.5847C29.3462 70.9749 29.7089 70.3473 29.9116 69.8452C29.9917 69.6658 29.901 69.4328 29.7107 69.3611C29.5186 69.2714 29.2999 69.3607 29.2199 69.5579Z" fill="#FF4400"/>
<path fill-rule="evenodd" clip-rule="evenodd" d="M49.9709 88.3093C49.166 88.4151 48.3521 88.6116 47.5591 88.8384C47.066 88.8686 46.4365 88.8683 45.8594 88.9742C45.2209 89.0951 44.6378 89.322 44.1971 89.6697C44.1252 89.7301 44.0607 89.7907 44.0038 89.8663C43.5946 90.1535 43.4386 90.5162 43.3772 90.7732C43.2603 91.272 43.3997 91.6343 43.5541 91.8761C43.7205 92.1482 43.9558 92.3598 44.2825 92.4807C44.4669 92.5412 45.4037 92.4359 45.4037 92.4359C45.4037 92.4359 45.3183 92.466 45.2883 92.466C45.753 92.3451 46.2131 92.1937 46.6763 92.0728L46.8981 92.0125L47.5082 91.8915C47.6626 91.8461 47.817 91.816 47.9729 91.7858L48.5634 91.6494C49.6022 91.5889 50.6919 91.5441 51.6677 91.2267C51.7231 91.2115 52.0169 91.1205 52.1803 91.0147C52.4141 90.8938 52.5745 90.7126 52.6749 90.5766C52.7079 90.5312 52.7364 90.4855 52.7619 90.4402C53.3329 90.2437 53.8906 90.0476 54.4032 89.8208C55.4734 89.3825 56.3577 88.8687 56.8719 88.3548C57.4385 87.8106 57.455 86.9034 56.9109 86.329C56.3653 85.7546 55.4629 85.7396 54.8978 86.2989C54.4361 86.7372 53.4934 87.1302 52.4516 87.5081C51.6467 87.8104 50.7833 88.0826 49.9709 88.3093Z" fill="black"/>
<path fill-rule="evenodd" clip-rule="evenodd" d="M55.9142 89.9254C55.6264 90.0916 55.1452 90.3336 54.6176 90.5754L54.3763 90.5453C53.9641 90.5 52.4487 90.2732 52.2164 90.243C51.7502 89.7291 50.9737 89.6233 50.3831 90.0163C49.7281 90.4546 49.5498 91.3463 49.9845 92.0114C50.2363 92.3892 50.686 92.737 51.287 92.9637C51.2241 93.4928 51.4069 93.8854 51.6692 94.1877C51.9345 94.49 52.3932 94.7623 53.0408 94.7321C53.5939 94.717 54.4707 94.369 54.9744 93.9155C55.1542 93.7492 55.2966 93.5679 55.4016 93.3865C56.187 93.0086 56.9948 92.6158 57.3531 92.4193C57.3905 92.3891 57.5854 92.2533 57.8552 92.0568C57.9766 92.3138 58.1355 92.4948 58.2614 92.6006C58.6197 92.918 59.0154 93.0088 59.4112 92.9484C59.7049 92.9181 60.1246 92.7972 60.4679 92.2682C60.5353 92.1624 60.6837 91.9205 60.7122 91.5124C60.7212 91.4066 60.7167 91.1951 60.7062 90.9533C60.7451 90.7115 60.7331 90.4543 60.6597 90.1822C60.6267 89.7439 60.5863 89.3205 60.5578 89.1542C60.4319 88.4136 59.9537 88.1566 59.8668 88.0962C59.8518 88.0811 59.0813 87.5975 58.233 88.2172C57.8882 88.4742 56.3174 89.6533 55.9202 89.9254H55.9142Z" fill="black"/>
<path fill-rule="evenodd" clip-rule="evenodd" d="M54.904 89.8041C56.2261 88.6402 58.2046 87.9449 59.7905 87.2345C60.51 86.9171 60.8382 86.0706 60.5219 85.3451C60.2057 84.6196 59.3648 84.2873 58.6453 84.6047C56.8136 85.4209 54.5608 86.2973 53.0319 87.6425C52.4398 88.1564 52.3783 89.0637 52.894 89.6683C53.4111 90.2578 54.312 90.318 54.904 89.8041Z" fill="black"/>
</svg>
