<svg width="24" height="25" viewBox="0 0 24 25" fill="none" xmlns="http://www.w3.org/2000/svg">
<g clip-path="url(#clip0_295_18278)">
<path d="M8 11.5L6.35061 13.5617C6.22066 13.7242 6.15569 13.8054 6.10948 13.8958C6.06849 13.9761 6.03853 14.0615 6.02042 14.1497C6 14.2492 6 14.3532 6 14.5612V19.5L10 14.5M16 11.5L17.6494 13.5617C17.7793 13.7242 17.8443 13.8054 17.8905 13.8958C17.9315 13.9761 17.9615 14.0615 17.9796 14.1497C18 14.2492 18 14.3532 18 14.5612V19.5L14 14.5M12 11.5V18.5M8 6.5H16M12 1.5L8.40415 5.54534C8.25464 5.71353 8.17989 5.79762 8.1266 5.8932C8.07933 5.97797 8.04466 6.06917 8.02367 6.16393C8 6.27077 8 6.38329 8 6.60832V10.5C8 11.9001 8 12.6002 8.27248 13.135C8.51217 13.6054 8.89462 13.9878 9.36502 14.2275C9.8998 14.5 10.5999 14.5 12 14.5C13.4001 14.5 14.1002 14.5 14.635 14.2275C15.1054 13.9878 15.4878 13.6054 15.7275 13.135C16 12.6002 16 11.9001 16 10.5V6.60832C16 6.38329 16 6.27077 15.9763 6.16393C15.9553 6.06917 15.9207 5.97797 15.8734 5.8932C15.8201 5.79762 15.7454 5.71353 15.5959 5.54534L12 1.5Z" stroke="white" stroke-width="2" stroke-linecap="round" stroke-linejoin="round"/>
<path d="M5 22.5H19" stroke="white" stroke-width="2" stroke-linecap="round"/>
</g>
<defs>
<clipPath id="clip0_295_18278">
<rect width="24" height="24" fill="white" transform="translate(0 0.5)"/>
</clipPath>
</defs>
</svg>
