<svg width="40" height="40" viewBox="0 0 40 40" fill="none" xmlns="http://www.w3.org/2000/svg">
<path fill-rule="evenodd" clip-rule="evenodd" d="M25 21C25 23.7614 22.7614 26 20 26C17.2386 26 15 23.7614 15 21C15 18.2386 17.2386 16 20 16C21.3261 16 22.5979 16.5268 23.5355 17.4645C24.4732 18.4021 25 19.6739 25 21Z" fill="#3772FF"/>
<path fill-rule="evenodd" clip-rule="evenodd" d="M25.8333 30H14.1667C11.8655 30 10 31.7909 10 34C10 36.2091 11.8655 38 14.1667 38H25.8333C28.1345 38 30 36.2091 30 34C30 31.7909 28.1345 30 25.8333 30V30Z" fill="#3772FF"/>
<path fill-rule="evenodd" clip-rule="evenodd" d="M7.68864 12.2596L6.85401 10.673C6.70407 10.3879 6.29593 10.3879 6.14599 10.673L5.31136 12.2596C5.22739 12.4248 5.10584 12.5679 4.9565 12.6775C4.80643 12.7877 4.63278 12.8614 4.44929 12.8929L2.66386 13.2429C2.3653 13.3014 2.2388 13.6586 2.43397 13.892L3.71 15.418C3.94385 15.6743 4.0542 16.0199 4.01214 16.3643L3.77689 18.2705C3.73807 18.5851 4.06309 18.8177 4.34832 18.6795L5.942 17.9071C6.11597 17.8229 6.3067 17.7789 6.5 17.7786C6.68136 17.7791 6.85994 17.8232 7.02071 17.9071L8.68149 18.645C8.96594 18.7714 9.27939 18.5387 9.24081 18.2299L9.00329 16.3283C8.96217 15.9847 9.07271 15.6401 9.30607 15.3846L10.5625 13.8926C10.7589 13.6594 10.6327 13.3011 10.3335 13.2424L8.55071 12.8929C8.367 12.8615 8.19311 12.7878 8.04286 12.6775C7.89375 12.5678 7.77243 12.4247 7.68864 12.2596Z" fill="#3772FF"/>
<path fill-rule="evenodd" clip-rule="evenodd" d="M21.1886 4.25964L20.354 2.67298C20.2041 2.38794 19.7959 2.38794 19.646 2.67298L18.8114 4.25964C18.7274 4.42477 18.6058 4.56789 18.4565 4.6775C18.3064 4.78767 18.1328 4.8614 17.9493 4.89286L16.1639 5.24291C15.8653 5.30145 15.7388 5.65864 15.934 5.89204L17.21 7.418C17.4439 7.6743 17.5542 8.01989 17.5121 8.36429L17.2769 10.2705C17.2381 10.5851 17.5631 10.8177 17.8483 10.6795L19.442 9.90714C19.616 9.82288 19.8067 9.77894 20 9.77857C20.1814 9.77912 20.3599 9.82322 20.5207 9.90714L22.1815 10.645C22.4659 10.7714 22.7794 10.5387 22.7408 10.2299L22.5033 8.32829C22.4622 7.98465 22.5727 7.64014 22.8061 7.38457L24.0625 5.89258C24.2589 5.6594 24.1327 5.30105 23.8335 5.2424L22.0507 4.89286C21.867 4.8615 21.6931 4.78776 21.5429 4.6775C21.3937 4.56781 21.2724 4.4247 21.1886 4.25964Z" fill="#3772FF"/>
<path fill-rule="evenodd" clip-rule="evenodd" d="M34.6886 12.2596L33.854 10.673C33.7041 10.3879 33.2959 10.3879 33.146 10.673L32.3114 12.2596C32.2274 12.4248 32.1058 12.5679 31.9565 12.6775C31.8064 12.7877 31.6328 12.8614 31.4493 12.8929L29.6639 13.2429C29.3653 13.3014 29.2388 13.6586 29.434 13.892L30.71 15.418C30.9439 15.6743 31.0542 16.0199 31.0121 16.3643L30.7769 18.2705C30.7381 18.5851 31.0631 18.8177 31.3483 18.6795L32.942 17.9071C33.116 17.8229 33.3067 17.7789 33.5 17.7786C33.6814 17.7791 33.8599 17.8232 34.0207 17.9071L35.6815 18.645C35.9659 18.7714 36.2794 18.5387 36.2408 18.2299L36.0033 16.3283C35.9622 15.9847 36.0727 15.6401 36.3061 15.3846L37.5625 13.8926C37.7589 13.6594 37.6327 13.3011 37.3335 13.2424L35.5507 12.8929C35.367 12.8615 35.1931 12.7878 35.0429 12.6775C34.8937 12.5678 34.7724 12.4247 34.6886 12.2596Z" fill="#3772FF"/>
</svg>
