<svg width="48" height="48" viewBox="0 0 48 48" fill="none" xmlns="http://www.w3.org/2000/svg">
<rect width="48" height="48" rx="24" fill="#23262F"/>
<path fill-rule="evenodd" clip-rule="evenodd" d="M27 23.5996C27 25.2565 25.6569 26.5996 24 26.5996C22.3431 26.5996 21 25.2565 21 23.5996C21 21.9428 22.3431 20.5996 24 20.5996C24.7956 20.5996 25.5587 20.9157 26.1213 21.4783C26.6839 22.0409 27 22.804 27 23.5996Z" stroke="white" stroke-width="1.5" stroke-linecap="round" stroke-linejoin="round"/>
<path fill-rule="evenodd" clip-rule="evenodd" d="M28.0833 30H19.9167C18.3058 30 17 31.1193 17 32.5C17 33.8807 18.3058 35 19.9167 35H28.0833C29.6942 35 31 33.8807 31 32.5C31 31.1193 29.6942 30 28.0833 30V30Z" stroke="white" stroke-width="1.5" stroke-linecap="round" stroke-linejoin="round"/>
<path fill-rule="evenodd" clip-rule="evenodd" d="M16.6131 19.3558L16.254 18.673C16.104 18.3879 15.6959 18.3879 15.5459 18.673L15.1868 19.3558C15.1364 19.4549 15.0635 19.5407 14.9739 19.6065C14.8838 19.6726 14.7796 19.7168 14.6695 19.7357L13.8638 19.8937C13.5653 19.9522 13.4388 20.3094 13.6339 20.5428L14.226 21.2508C14.3663 21.4046 14.4325 21.6119 14.4072 21.8186L14.3021 22.6705C14.2633 22.9851 14.5883 23.2177 14.8735 23.0795L15.5652 22.7443C15.6695 22.6937 15.784 22.6674 15.9 22.6671C16.0088 22.6675 16.1159 22.6939 16.2124 22.7443L16.95 23.072C17.2345 23.1984 17.5479 22.9657 17.5093 22.6569L17.4019 21.797C17.3773 21.5908 17.4436 21.3841 17.5836 21.2307L18.1625 20.5434C18.3588 20.3102 18.2326 19.9518 17.9335 19.8932L17.1304 19.7357C17.0201 19.7169 16.9158 19.6727 16.8257 19.6065C16.7362 19.5407 16.6634 19.4548 16.6131 19.3558Z" fill="white"/>
<path fill-rule="evenodd" clip-rule="evenodd" d="M24.7132 14.3558L24.3541 13.673C24.2041 13.3879 23.796 13.3879 23.646 13.673L23.2869 14.3558C23.2365 14.4549 23.1636 14.5407 23.0739 14.6065C22.9839 14.6726 22.8797 14.7168 22.7696 14.7357L21.9639 14.8937C21.6654 14.9522 21.5388 15.3094 21.734 15.5428L22.326 16.2508C22.4664 16.4046 22.5326 16.6119 22.5073 16.8186L22.4022 17.6705C22.3634 17.9851 22.6884 18.2177 22.9736 18.0795L23.6652 17.7443C23.7696 17.6937 23.8841 17.6674 24 17.6671C24.1089 17.6675 24.216 17.6939 24.3125 17.7443L25.0501 18.072C25.3346 18.1984 25.648 17.9657 25.6094 17.6569L25.502 16.797C25.4774 16.5908 25.5437 16.3841 25.6837 16.2307L26.2626 15.5434C26.4589 15.3102 26.3327 14.9518 26.0336 14.8932L25.2305 14.7357C25.1202 14.7169 25.0159 14.6727 24.9258 14.6065C24.8363 14.5407 24.7635 14.4548 24.7132 14.3558Z" fill="white"/>
<path fill-rule="evenodd" clip-rule="evenodd" d="M32.8131 19.3558L32.4539 18.673C32.304 18.3879 31.8958 18.3879 31.7459 18.673L31.3867 19.3558C31.3363 19.4549 31.2634 19.5407 31.1738 19.6065C31.0838 19.6726 30.9796 19.7168 30.8695 19.7357L30.0638 19.8937C29.7652 19.9522 29.6387 20.3094 29.8339 20.5428L30.4259 21.2508C30.5662 21.4046 30.6324 21.6119 30.6072 21.8186L30.502 22.6705C30.4632 22.9851 30.7882 23.2177 31.0735 23.0795L31.7651 22.7443C31.8695 22.6937 31.9839 22.6674 32.0999 22.6671C32.2087 22.6675 32.3159 22.6939 32.4123 22.7443L33.15 23.072C33.4344 23.1984 33.7479 22.9657 33.7093 22.6569L33.6019 21.797C33.5772 21.5908 33.6435 21.3841 33.7835 21.2307L34.3624 20.5434C34.5588 20.3102 34.4326 19.9518 34.1334 19.8932L33.3303 19.7357C33.2201 19.7169 33.1158 19.6727 33.0256 19.6065C32.9362 19.5407 32.8634 19.4548 32.8131 19.3558Z" fill="white"/>
</svg>
