<svg width="40" height="40" viewBox="0 0 40 40" fill="none" xmlns="http://www.w3.org/2000/svg">
<path d="M33.5 10H27.5C25.9249 10 25.1373 10 24.5357 10.327C24.0064 10.6146 23.5762 11.0735 23.3065 11.638C23 12.2798 23 13.1198 23 14.8V25.2C23 26.8802 23 27.7202 23.3065 28.362C23.5762 28.9265 24.0064 29.3854 24.5357 29.673C25.1373 30 25.9249 30 27.5 30H30.5H33.2C34.8802 30 35.7202 30 36.362 29.673C36.9265 29.3854 37.3854 28.9265 37.673 28.362C38 27.7202 38 26.8802 38 25.2V20.5V14.8C38 13.1198 38 12.2798 37.6935 11.638C37.4238 11.0735 36.9936 10.6146 36.4643 10.327C35.8627 10 35.0751 10 33.5 10Z" stroke="#EF466F" stroke-width="1.5" stroke-linecap="round" stroke-linejoin="round"/>
<path d="M3 13.76V26.24C3 28.2562 3 29.2643 3.32698 30.0344C3.6146 30.7118 4.07354 31.2625 4.63803 31.6076C5.27976 32 6.11984 32 7.8 32H11H14.2C15.8802 32 16.7202 32 17.362 31.673C17.9265 31.3854 18.3854 30.9265 18.673 30.362C19 29.7202 19 28.8802 19 27.2V20.6V13.76C19 11.7438 19 10.7357 18.673 9.96563C18.3854 9.28825 17.9265 8.73752 17.362 8.39238C16.7202 8 15.8802 8 14.2 8H7.8C6.11984 8 5.27976 8 4.63803 8.39238C4.07354 8.73752 3.6146 9.28825 3.32698 9.96563C3 10.7357 3 11.7438 3 13.76ZM3 13.76H9.54545" stroke="#EF466F" stroke-width="1.5" stroke-linecap="round" stroke-linejoin="round"/>
<path d="M26.2 3H15.8C13.0697 3 11.7046 3 10.6618 3.55587C9.74451 4.04482 8.99873 4.82502 8.53134 5.78465C8 6.8756 8 8.30373 8 11.16V28.84C8 31.6963 8 33.1244 8.53134 34.2154C8.99873 35.175 9.74451 35.9552 10.6618 36.4441C11.7046 37 13.0697 37 15.8 37H21H29.2C30.8802 37 31.7202 37 32.362 36.673C32.9265 36.3854 33.3854 35.9265 33.673 35.362C34 34.7202 34 33.8802 34 32.2V20.85V11.16C34 8.30373 34 6.8756 33.4687 5.78465C33.0013 4.82502 32.2555 4.04482 31.3382 3.55587C30.2954 3 28.9303 3 26.2 3Z" fill="#EF466F"/>
<path d="M25 18.3337H15M18.3333 25.0003H15M28.3333 11.667H15" stroke="white" stroke-width="2" stroke-linecap="round" stroke-linejoin="round"/>
</svg>
