<svg width="24" height="25" viewBox="0 0 24 25" fill="none" xmlns="http://www.w3.org/2000/svg">
<g clip-path="url(#clip0_295_18286)">
<path d="M6.52992 18.055L1 20.75V5.9C1 4.35986 1 3.58978 1.29973 3.00153C1.56338 2.48408 1.98408 2.06338 2.50153 1.79973C3.08978 1.5 3.85986 1.5 5.4 1.5H15.85C17.3901 1.5 18.1602 1.5 18.7485 1.79973C19.2659 2.06338 19.6866 2.48408 19.9503 3.00153C20.25 3.58978 20.25 4.35986 20.25 5.9V8.375M23 23.5L19.9835 21.489C19.5715 21.2143 19.3655 21.077 19.1426 20.9797C18.9448 20.8933 18.7375 20.8306 18.525 20.7927C18.2855 20.75 18.038 20.75 17.5428 20.75H10.9C9.35986 20.75 8.58978 20.75 8.00153 20.4503C7.48408 20.1866 7.06338 19.7659 6.79973 19.2485C6.5 18.6602 6.5 17.8901 6.5 16.35V12.775C6.5 11.2349 6.5 10.4648 6.79973 9.87653C7.06338 9.35908 7.48408 8.93838 8.00153 8.67473C8.58978 8.375 9.35986 8.375 10.9 8.375H18.6C20.1401 8.375 20.9102 8.375 21.4985 8.67473C22.0159 8.93838 22.4366 9.35908 22.7003 9.87653C23 10.4648 23 11.2349 23 12.775V23.5Z" stroke="white" stroke-width="2" stroke-linecap="round" stroke-linejoin="round"/>
</g>
<defs>
<clipPath id="clip0_295_18286">
<rect width="24" height="24" fill="white" transform="translate(0 0.5)"/>
</clipPath>
</defs>
</svg>
