<svg width="24" height="24" viewBox="0 0 24 24" fill="none" xmlns="http://www.w3.org/2000/svg">
<path d="M19.5854 13.8983C19.7701 13.3778 19.4978 12.8061 18.9773 12.6214C18.4569 12.4367 17.8852 12.709 17.7005 13.2295L19.5854 13.8983ZM16.6095 19.2945L17.5519 19.6289L16.6095 19.2945ZM15.238 20.4819L15.4342 21.4625L15.238 20.4819ZM3.2668 22.8762L2.28267 22.6987C2.22393 23.0244 2.33018 23.3581 2.56643 23.59C2.80269 23.8218 3.13835 23.9217 3.46291 23.8568L3.2668 22.8762ZM5.45142 10.7614L6.43555 10.9389L5.45142 10.7614ZM6.71175 9.33358L7.01003 10.2881H7.01003L6.71175 9.33358ZM12.8774 8.45451C13.4045 8.28978 13.6983 7.7289 13.5336 7.20176C13.3689 6.67461 12.808 6.38082 12.2808 6.54555L12.8774 8.45451ZM2.77626 21.9525C2.38573 22.343 2.38573 22.9762 2.77626 23.3667C3.16678 23.7572 3.79994 23.7572 4.19047 23.3667L2.77626 21.9525ZM9.38804 18.1691C9.77856 17.7786 9.77856 17.1455 9.38804 16.7549C8.99751 16.3644 8.36435 16.3644 7.97382 16.7549L9.38804 18.1691ZM22.108 9.23256L22.8151 8.52545L22.108 9.23256ZM22.108 10.9651L22.8151 11.6722L22.108 10.9651ZM15.1779 4.03499L14.4708 3.32788L15.1779 4.03499ZM16.9104 4.03499L16.2033 4.7421L16.9104 4.03499ZM13.0122 7.93317L12.3051 8.64027L13.0122 7.93317ZM13.0122 6.20064L13.7193 6.90775L13.0122 6.20064ZM18.2098 13.1307L18.9169 12.4236L18.2098 13.1307ZM19.9423 13.1307L19.2352 12.4236L19.9423 13.1307ZM2.84731 6.60086C2.84731 7.15315 3.29502 7.60086 3.84731 7.60086C4.39959 7.60086 4.84731 7.15315 4.84731 6.60086L2.84731 6.60086ZM4.84731 1.3125C4.84731 0.760215 4.39959 0.3125 3.84731 0.3125C3.29502 0.3125 2.84731 0.760215 2.84731 1.3125L4.84731 1.3125ZM1.20312 2.95668C0.65084 2.95668 0.203125 3.4044 0.203125 3.95668C0.203125 4.50897 0.65084 4.95668 1.20313 4.95668L1.20312 2.95668ZM6.49149 4.95668C7.04377 4.95668 7.49149 4.50897 7.49149 3.95668C7.49149 3.4044 7.04377 2.95668 6.49149 2.95668V4.95668ZM17.7005 13.2295L15.6671 18.9601L17.5519 19.6289L19.5854 13.8983L17.7005 13.2295ZM15.0419 19.5013L3.07068 21.8956L3.46291 23.8568L15.4342 21.4625L15.0419 19.5013ZM4.25092 23.0536L6.43555 10.9389L4.46729 10.584L2.28267 22.6987L4.25092 23.0536ZM7.01003 10.2881L12.8774 8.45451L12.2808 6.54555L6.41348 8.3791L7.01003 10.2881ZM6.43555 10.9389C6.49091 10.6319 6.71228 10.3811 7.01003 10.2881L6.41348 8.3791C5.40479 8.69432 4.65484 9.54395 4.46729 10.584L6.43555 10.9389ZM15.6671 18.9601C15.5685 19.238 15.331 19.4435 15.0419 19.5013L15.4342 21.4625C16.4136 21.2666 17.2179 20.5702 17.5519 19.6289L15.6671 18.9601ZM4.19047 23.3667L9.38804 18.1691L7.97382 16.7549L2.77626 21.9525L4.19047 23.3667ZM18.9169 12.4236L13.7193 7.22606L12.3051 8.64027L17.5027 13.8378L18.9169 12.4236ZM13.7193 6.90775L15.885 4.7421L14.4708 3.32788L12.3051 5.49354L13.7193 6.90775ZM16.2033 4.7421L21.4009 9.93966L22.8151 8.52545L17.6175 3.32788L16.2033 4.7421ZM21.4009 10.258L19.2352 12.4236L20.6494 13.8378L22.8151 11.6722L21.4009 10.258ZM21.4009 9.93966C21.4888 10.0276 21.4888 10.1701 21.4009 10.258L22.8151 11.6722C23.684 10.8032 23.684 9.3944 22.8151 8.52545L21.4009 9.93966ZM15.885 4.7421C15.9729 4.6542 16.1154 4.6542 16.2033 4.7421L17.6175 3.32788C16.7486 2.45894 15.3397 2.45894 14.4708 3.32788L15.885 4.7421ZM13.7193 7.22606C13.6314 7.13816 13.6314 6.99565 13.7193 6.90775L12.3051 5.49354C11.4362 6.36248 11.4362 7.77133 12.3051 8.64027L13.7193 7.22606ZM17.5027 13.8378C18.3716 14.7068 19.7805 14.7068 20.6494 13.8378L19.2352 12.4236C19.1473 12.5115 19.0048 12.5115 18.9169 12.4236L17.5027 13.8378ZM9.82117 14.271C10.3875 13.7046 11.3057 13.7046 11.872 14.271L13.2862 12.8568C11.9388 11.5094 9.75432 11.5094 8.40695 12.8568L9.82117 14.271ZM11.872 14.271C12.4383 14.8373 12.4383 15.7555 11.872 16.3218L13.2862 17.736C14.6336 16.3886 14.6336 14.2041 13.2862 12.8568L11.872 14.271ZM11.872 16.3218C11.3057 16.8881 10.3875 16.8881 9.82117 16.3218L8.40695 17.736C9.75432 19.0834 11.9388 19.0834 13.2862 17.736L11.872 16.3218ZM9.82117 16.3218C9.25484 15.7555 9.25484 14.8373 9.82117 14.271L8.40695 12.8568C7.05958 14.2041 7.05958 16.3886 8.40695 17.736L9.82117 16.3218ZM4.84731 6.60086L4.84731 3.95668L2.84731 3.95668L2.84731 6.60086L4.84731 6.60086ZM4.84731 3.95668L4.84731 1.3125L2.84731 1.3125L2.84731 3.95668L4.84731 3.95668ZM1.20313 4.95668L3.84731 4.95668L3.84731 2.95668L1.20312 2.95668L1.20313 4.95668ZM3.84731 4.95668L6.49149 4.95668V2.95668L3.84731 2.95668L3.84731 4.95668Z" fill="white"/>
</svg>
