<svg width="24" height="24" viewBox="0 0 24 24" fill="none" xmlns="http://www.w3.org/2000/svg">
<g clip-path="url(#clip0_295_18243)">
<path d="M23 12C23 18.0751 18.0751 23 12 23C5.92487 23 1 18.0751 1 12C1 5.92487 5.92487 1 12 1C18.0751 1 23 5.92487 23 12Z" stroke="white" stroke-width="2" stroke-linecap="round" stroke-linejoin="round"/>
<path d="M7.15572 12.3132C6.42808 12.0303 6.06425 11.8888 5.95804 11.6849C5.86596 11.5082 5.86583 11.2977 5.9577 11.1208C6.06368 10.9168 6.42734 10.7749 7.15465 10.4911L14.9619 7.44435C15.6184 7.18813 15.9467 7.06002 16.1565 7.1301C16.3387 7.19096 16.4816 7.33392 16.5425 7.51609C16.6126 7.72586 16.4845 8.05414 16.2282 8.71069L13.1815 16.5179C12.8977 17.2452 12.7558 17.6089 12.5518 17.7149C12.3749 17.8068 12.1644 17.8066 11.9877 17.7145C11.7838 17.6083 11.6423 17.2445 11.3593 16.5169L10.3383 13.8912C10.2808 13.7435 10.2521 13.6697 10.2077 13.6075C10.1684 13.5524 10.1202 13.5042 10.0651 13.4648C10.0029 13.4205 9.92906 13.3918 9.78136 13.3343L7.15572 12.3132Z" stroke="white" stroke-width="2" stroke-linecap="round" stroke-linejoin="round"/>
</g>
<defs>
<clipPath id="clip0_295_18243">
<rect width="24" height="24" fill="white"/>
</clipPath>
</defs>
</svg>
